<svg width="414" height="74" viewBox="0 0 414 74" fill="none" xmlns="http://www.w3.org/2000/svg">
<mask id="path-1-inside-1_372_526" fill="white">
<path d="M12 27C12 13.1929 23.1929 2 37 2H377C390.807 2 402 13.1929 402 27V27C402 40.8071 390.807 52 377 52H37C23.1929 52 12 40.8071 12 27V27Z"/>
</mask>
<path d="M12 27C12 13.1929 23.1929 2 37 2H377C390.807 2 402 13.1929 402 27V27C402 40.8071 390.807 52 377 52H37C23.1929 52 12 40.8071 12 27V27Z" fill="white"/>
<path d="M12 27C12 12.6406 23.6406 1 38 1H376C390.359 1 402 12.6406 402 27C402 13.7452 390.807 3 377 3H37C23.1929 3 12 13.7452 12 27ZM12 27M402 52H12H402M402 52M12 52V2V52M12 52M402 2V52V2" fill="#C3C6D0" mask="url(#path-1-inside-1_372_526)"/>
<g filter="url(#filter0_dd_372_526)">
<rect x="12" y="2" width="390" height="50" fill="white" fill-opacity="0.01" shape-rendering="crispEdges"/>
</g>
<path d="M44.7071 31.2812C44.1834 31.2812 43.7588 31.926 43.7588 32.7213C43.7588 33.5165 44.1834 34.1613 44.7071 34.1613H52.2933C52.817 34.1613 53.2415 33.5165 53.2415 32.7213C53.2415 31.926 52.817 31.2812 52.2933 31.2812H44.7071Z" fill="#134074"/>
<path fill-rule="evenodd" clip-rule="evenodd" d="M48.5 14C47.6766 14 46.9285 14.2264 46.1169 14.6053C45.3324 14.9716 44.4261 15.5115 43.294 16.186L40.891 17.6177C39.8199 18.2559 38.9621 18.767 38.301 19.253C37.6165 19.7563 37.0906 20.2689 36.7108 20.935C36.3318 21.5998 36.1611 22.3071 36.0793 23.1431C36 23.9533 36 24.9441 36 26.1866V27.9869C36 30.112 36 31.7897 36.1776 33.1013C36.3597 34.4469 36.7425 35.5331 37.6074 36.3919C38.4763 37.2548 39.5819 37.6402 40.9507 37.823C42.2773 38 43.9716 38 46.1068 38H50.8931C53.0284 38 54.7227 38 56.0493 37.823C57.418 37.6402 58.5237 37.2548 59.3926 36.3919C60.2574 35.5331 60.6402 34.4469 60.8224 33.1013C61 31.7897 61 30.1121 61 27.9869V26.1866C61 24.9441 61 23.9533 60.9207 23.1431C60.8388 22.3071 60.6681 21.5998 60.2892 20.935C59.9094 20.2689 59.3836 19.7563 58.699 19.253C58.0379 18.767 57.1801 18.2559 56.109 17.6178L53.7059 16.186C52.574 15.5115 51.6676 14.9715 50.883 14.6053C50.0715 14.2264 49.3234 14 48.5 14ZM44.1739 17.6325C45.355 16.9288 46.1855 16.4352 46.8797 16.1111C47.556 15.7953 48.0351 15.6744 48.5 15.6744C48.9649 15.6744 49.444 15.7953 50.1203 16.1111C50.8145 16.4352 51.645 16.9288 52.8262 17.6325L55.1517 19.0181C56.269 19.6837 57.0534 20.1522 57.6385 20.5824C58.2078 21.0009 58.5352 21.3463 58.7592 21.739C58.984 22.1331 59.1151 22.5938 59.1842 23.2998C59.2549 24.0226 59.2558 24.9348 59.2558 26.2276V27.9256C59.2558 30.1257 59.2541 31.6944 59.0928 32.8855C58.9344 34.0554 58.636 34.7342 58.1386 35.2282C57.6452 35.7181 56.9734 36.009 55.8091 36.1645C54.6165 36.3237 53.0436 36.3256 50.8256 36.3256H46.1744C43.9564 36.3256 42.3835 36.3237 41.191 36.1645C40.0266 36.009 39.3548 35.7181 38.8614 35.2282C38.364 34.7342 38.0656 34.0554 37.9072 32.8855C37.7459 31.6944 37.7442 30.1257 37.7442 27.9256V26.2276C37.7442 24.9348 37.7451 24.0226 37.8158 23.2998C37.8849 22.5938 38.0161 22.1331 38.2408 21.739C38.4647 21.3463 38.7922 21.0009 39.3615 20.5824C39.9466 20.1522 40.731 19.6837 41.8483 19.0181L44.1739 17.6325Z" fill="#134074"/>
<path d="M95 25.4651C95 25.889 95.3905 26.2326 95.8721 26.2326C96.3537 26.2326 96.7442 25.889 96.7442 25.4651H95ZM97.1204 30.7108C96.936 30.3192 96.4259 30.1332 95.9809 30.2954C95.5359 30.4576 95.3246 30.9065 95.5089 31.2981L97.1204 30.7108ZM109.514 36.997L110.144 36.0599L108.643 35.278L108.013 36.2152L109.514 36.997ZM104.856 36.0599L105.486 36.997L106.987 36.2152L106.357 35.278L104.856 36.0599ZM108.013 36.2152C107.789 36.5484 107.211 36.5484 106.987 36.2152L105.486 36.997C106.385 38.3343 108.615 38.3343 109.514 36.997L108.013 36.2152ZM105.756 17.5349H109.244V16H105.756V17.5349ZM118.256 25.4651V26.4884H120V25.4651H118.256ZM102.619 33.3868C101.159 33.3646 100.394 33.2829 99.7949 33.0644L99.1274 34.4824C100.063 34.8236 101.13 34.8993 102.589 34.9214L102.619 33.3868ZM95.5089 31.2981C96.1875 32.7398 97.4891 33.8852 99.1274 34.4824L99.7949 33.0644C98.584 32.6229 97.6219 31.7764 97.1204 30.7108L95.5089 31.2981ZM118.256 26.4884C118.256 27.6908 118.255 28.5543 118.203 29.2355C118.15 29.91 118.05 30.3498 117.88 30.7108L119.491 31.2981C119.764 30.719 119.884 30.0926 119.943 29.34C120 28.5944 120 27.6699 120 26.4884H118.256ZM112.411 34.9214C113.87 34.8993 114.937 34.8236 115.873 34.4824L115.205 33.0644C114.606 33.2829 113.841 33.3646 112.381 33.3868L112.411 34.9214ZM117.88 30.7108C117.378 31.7764 116.416 32.6229 115.205 33.0644L115.873 34.4824C117.511 33.8852 118.812 32.7398 119.491 31.2981L117.88 30.7108ZM109.244 17.5349C111.164 17.5349 112.543 17.5357 113.618 17.6257C114.681 17.7146 115.357 17.8851 115.896 18.1757L116.807 16.867C115.948 16.4037 114.974 16.1973 113.784 16.0977C112.606 15.9992 111.13 16 109.244 16V17.5349ZM120 25.4651C120 23.8052 120.001 22.5064 119.889 21.4705C119.776 20.4231 119.541 19.5655 119.015 18.8095L117.528 19.6115C117.858 20.0858 118.052 20.6807 118.153 21.6157C118.255 22.5622 118.256 23.7755 118.256 25.4651H120ZM115.896 18.1757C116.561 18.5343 117.12 19.0263 117.528 19.6115L119.015 18.8095C118.463 18.0178 117.707 17.3522 116.807 16.867L115.896 18.1757ZM105.756 16C103.87 16 102.394 15.9992 101.216 16.0977C100.026 16.1973 99.0517 16.4037 98.1926 16.867L99.1039 18.1757C99.6429 17.8851 100.319 17.7146 101.381 17.6257C102.457 17.5357 103.836 17.5349 105.756 17.5349V16ZM96.7442 25.4651C96.7442 23.7755 96.7451 22.5622 96.8474 21.6157C96.9484 20.6807 97.1421 20.0858 97.4724 19.6115L95.9853 18.8095C95.4588 19.5655 95.2242 20.4231 95.111 21.4705C94.9991 22.5064 95 23.8052 95 25.4651H96.7442ZM98.1926 16.867C97.293 17.3522 96.5366 18.0178 95.9853 18.8095L97.4724 19.6115C97.8799 19.0263 98.439 18.5343 99.1039 18.1757L98.1926 16.867ZM106.357 35.278C106.12 34.927 105.913 34.6173 105.712 34.3739C105.499 34.1177 105.256 33.887 104.918 33.7141L104.042 35.041C104.097 35.0691 104.172 35.1206 104.302 35.278C104.443 35.4485 104.603 35.6839 104.856 36.0599L106.357 35.278ZM102.589 34.9214C103.1 34.9292 103.423 34.9349 103.67 34.9588C103.9 34.9813 103.989 35.0142 104.042 35.041L104.918 33.7141C104.578 33.5399 104.224 33.4686 103.862 33.4333C103.516 33.3996 103.097 33.3941 102.619 33.3868L102.589 34.9214ZM110.144 36.0599C110.397 35.6839 110.557 35.4485 110.698 35.278C110.828 35.1206 110.903 35.0691 110.958 35.041L110.082 33.7141C109.744 33.887 109.5 34.1177 109.288 34.3739C109.087 34.6173 108.88 34.927 108.643 35.278L110.144 36.0599ZM112.381 33.3868C111.903 33.3941 111.484 33.3996 111.138 33.4333C110.776 33.4686 110.422 33.5399 110.082 33.7141L110.958 35.041C111.011 35.0142 111.1 34.9813 111.33 34.9588C111.577 34.9349 111.9 34.9292 112.411 34.9214L112.381 33.3868Z" fill="#6FAA11"/>
<path d="M207.05 23.3086C204.135 23.3086 201.75 25.1687 201.75 27.4421C201.75 29.7155 204.135 31.5756 207.05 31.5756C209.964 31.5756 212.349 29.7155 212.349 27.4421C212.349 25.1687 209.964 23.3086 207.05 23.3086ZM207.05 30.1978C205.106 30.1978 203.517 28.9577 203.517 27.4421C203.517 25.9265 205.106 24.6864 207.05 24.6864C208.993 24.6864 210.583 25.9265 210.583 27.4421C210.583 28.9577 208.993 30.1978 207.05 30.1978Z" fill="#134074"/>
<path d="M207 33.2031C203.71 33.2031 200.552 34.271 198.3 36.1483L197.704 36.6477L198.984 37.595L199.581 37.0955C201.524 35.4766 204.152 34.581 207 34.581C209.849 34.581 212.476 35.4766 214.42 37.0955L215.016 37.595L216.297 36.6477L215.7 36.1483C213.448 34.2882 210.29 33.2031 207 33.2031Z" fill="#134074"/>
<path d="M214.287 24.0938V25.4716C216.363 25.4716 218.284 26.1261 219.719 27.3144L221 26.3672C219.278 24.9205 216.827 24.0938 214.287 24.0938Z" fill="#134074"/>
<path d="M218.505 19.2896C218.505 17.4812 216.606 16 214.287 16C211.968 16 210.069 17.4812 210.069 19.2896C210.069 21.098 211.968 22.5792 214.287 22.5792C216.606 22.5792 218.505 21.098 218.505 19.2896ZM211.836 19.2896C211.836 18.239 212.94 17.3778 214.287 17.3778C215.634 17.3778 216.738 18.239 216.738 19.2896C216.738 20.3402 215.634 21.2013 214.287 21.2013C212.94 21.2013 211.836 20.3402 211.836 19.2896Z" fill="#134074"/>
<path d="M199.713 24.0938C197.173 24.0938 194.722 24.9205 193 26.3672L194.281 27.3144C195.694 26.1261 197.637 25.4716 199.713 25.4716V24.0938Z" fill="#134074"/>
<path d="M203.93 19.2896C203.93 17.4812 202.031 16 199.713 16C197.394 16 195.495 17.4812 195.495 19.2896C195.495 21.098 197.394 22.5792 199.713 22.5792C202.031 22.5792 203.93 21.098 203.93 19.2896ZM199.713 21.2013C198.366 21.2013 197.262 20.3402 197.262 19.2896C197.262 18.239 198.366 17.3778 199.713 17.3778C201.06 17.3778 202.164 18.239 202.164 19.2896C202.164 20.3402 201.06 21.2013 199.713 21.2013Z" fill="#134074"/>
<path opacity="0.4" d="M365.144 26.9046C365.06 26.8925 364.952 26.8925 364.856 26.9046C362.741 26.8325 361.06 25.1033 361.06 22.9778C361.06 20.8043 362.813 19.0391 365 19.0391C367.174 19.0391 368.94 20.8043 368.94 22.9778C368.928 25.1033 367.258 26.8325 365.144 26.9046Z" stroke="#134074" stroke-width="2" stroke-linecap="round" stroke-linejoin="round"/>
<path opacity="0.34" d="M373.06 34.8593C370.931 36.8122 368.109 37.9983 365 37.9983C361.891 37.9983 359.069 36.8122 356.94 34.8593C357.06 33.7331 357.777 32.6308 359.057 31.7682C362.333 29.5877 367.691 29.5877 370.943 31.7682C372.223 32.6308 372.94 33.7331 373.06 34.8593Z" stroke="#134074" stroke-width="2" stroke-linecap="round" stroke-linejoin="round"/>
<path d="M365 37.9998C371.627 37.9998 377 32.6272 377 25.9999C377 19.3725 371.627 14 365 14C358.373 14 353 19.3725 353 25.9999C353 32.6272 358.373 37.9998 365 37.9998Z" stroke="#134074" stroke-width="2" stroke-linecap="round" stroke-linejoin="round"/>
<path d="M292.125 24.7812C292.125 24.574 292.227 24.3753 292.409 24.2288C292.59 24.0823 292.837 24 293.094 24H295.031C295.288 24 295.535 24.0823 295.716 24.2288C295.898 24.3753 296 24.574 296 24.7812V26.3438C296 26.551 295.898 26.7497 295.716 26.8962C295.535 27.0427 295.288 27.125 295.031 27.125H293.094C292.837 27.125 292.59 27.0427 292.409 26.8962C292.227 26.7497 292.125 26.551 292.125 26.3438V24.7812Z" fill="#134074" stroke="#134074" stroke-width="0.000866071"/>
<path d="M292.125 28.7812C292.125 28.574 292.227 28.3753 292.409 28.2288C292.59 28.0823 292.837 28 293.094 28H295.031C295.288 28 295.535 28.0823 295.716 28.2288C295.898 28.3753 296 28.574 296 28.7812V30.3438C296 30.551 295.898 30.7497 295.716 30.8962C295.535 31.0427 295.288 31.125 295.031 31.125H293.094C292.837 31.125 292.59 31.0427 292.409 30.8962C292.227 30.7497 292.125 30.551 292.125 30.3438V28.7812Z" fill="#134074" stroke="#134074" stroke-width="0.000866071"/>
<path d="M286.125 32.7812C286.125 32.574 286.227 32.3753 286.409 32.2288C286.59 32.0823 286.837 32 287.094 32H289.031C289.288 32 289.535 32.0823 289.716 32.2288C289.898 32.3753 290 32.574 290 32.7812V34.3438C290 34.551 289.898 34.7497 289.716 34.8962C289.535 35.0427 289.288 35.125 289.031 35.125H287.094C286.837 35.125 286.59 35.0427 286.409 34.8962C286.227 34.7497 286.125 34.551 286.125 34.3438V32.7812Z" fill="#134074" stroke="#134074" stroke-width="0.000866071"/>
<path d="M286 24.7812C286 24.574 286.102 24.3753 286.284 24.2288C286.465 24.0823 286.712 24 286.969 24H288.906C289.163 24 289.41 24.0823 289.591 24.2288C289.773 24.3753 289.875 24.574 289.875 24.7812V26.3438C289.875 26.551 289.773 26.7497 289.591 26.8962C289.41 27.0427 289.163 27.125 288.906 27.125H286.969C286.712 27.125 286.465 27.0427 286.284 26.8962C286.102 26.7497 286 26.551 286 26.3438V24.7812Z" fill="#134074" stroke="#134074" stroke-width="0.000866071"/>
<path d="M286 28.7812C286 28.574 286.102 28.3753 286.284 28.2288C286.465 28.0823 286.712 28 286.969 28H288.906C289.163 28 289.41 28.0823 289.591 28.2288C289.773 28.3753 289.875 28.574 289.875 28.7812V30.3438C289.875 30.551 289.773 30.7497 289.591 30.8962C289.41 31.0427 289.163 31.125 288.906 31.125H286.969C286.712 31.125 286.465 31.0427 286.284 30.8962C286.102 30.7497 286 30.551 286 30.3438V28.7812Z" fill="#134074" stroke="#134074" stroke-width="0.000866071"/>
<path d="M280 32.7812C280 32.574 280.102 32.3753 280.284 32.2288C280.465 32.0823 280.712 32 280.969 32H282.906C283.163 32 283.41 32.0823 283.591 32.2288C283.773 32.3753 283.875 32.574 283.875 32.7812V34.3438C283.875 34.551 283.773 34.7497 283.591 34.8962C283.41 35.0427 283.163 35.125 282.906 35.125H280.969C280.712 35.125 280.465 35.0427 280.284 34.8962C280.102 34.7497 280 34.551 280 34.3438V32.7812Z" fill="#134074" stroke="#134074" stroke-width="0.000866071"/>
<path d="M280 24.7812C280 24.574 280.102 24.3753 280.284 24.2288C280.465 24.0823 280.712 24 280.969 24H282.906C283.163 24 283.41 24.0823 283.591 24.2288C283.773 24.3753 283.875 24.574 283.875 24.7812V26.3438C283.875 26.551 283.773 26.7497 283.591 26.8962C283.41 27.0427 283.163 27.125 282.906 27.125H280.969C280.712 27.125 280.465 27.0427 280.284 26.8962C280.102 26.7497 280 26.551 280 26.3438V24.7812Z" fill="#134074" stroke="#134074" stroke-width="0.000866071"/>
<path d="M280 28.7812C280 28.574 280.102 28.3753 280.284 28.2288C280.465 28.0823 280.712 28 280.969 28H282.906C283.163 28 283.41 28.0823 283.591 28.2288C283.773 28.3753 283.875 28.574 283.875 28.7812V30.3438C283.875 30.551 283.773 30.7497 283.591 30.8962C283.41 31.0427 283.163 31.125 282.906 31.125H280.969C280.712 31.125 280.465 31.0427 280.284 30.8962C280.102 30.7497 280 30.551 280 30.3438V28.7812Z" fill="#134074" stroke="#134074" stroke-width="0.000866071"/>
<path d="M274 32.7812C274 32.574 274.102 32.3753 274.284 32.2288C274.465 32.0823 274.712 32 274.969 32H276.906C277.163 32 277.41 32.0823 277.591 32.2288C277.773 32.3753 277.875 32.574 277.875 32.7812V34.3438C277.875 34.551 277.773 34.7497 277.591 34.8962C277.41 35.0427 277.163 35.125 276.906 35.125H274.969C274.712 35.125 274.465 35.0427 274.284 34.8962C274.102 34.7497 274 34.551 274 34.3438V32.7812Z" fill="#134074" stroke="#134074" stroke-width="0.000866071"/>
<path d="M274 32.7812C274 32.574 274.102 32.3753 274.284 32.2288C274.465 32.0823 274.712 32 274.969 32H276.906C277.163 32 277.41 32.0823 277.591 32.2288C277.773 32.3753 277.875 32.574 277.875 32.7812V34.3438C277.875 34.551 277.773 34.7497 277.591 34.8962C277.41 35.0427 277.163 35.125 276.906 35.125H274.969C274.712 35.125 274.465 35.0427 274.284 34.8962C274.102 34.7497 274 34.551 274 34.3438V32.7812Z" fill="#134074" stroke="#134074" stroke-width="0.000866071"/>
<path d="M274 28.7812C274 28.574 274.102 28.3753 274.284 28.2288C274.465 28.0823 274.712 28 274.969 28H276.906C277.163 28 277.41 28.0823 277.591 28.2288C277.773 28.3753 277.875 28.574 277.875 28.7812V30.3438C277.875 30.551 277.773 30.7497 277.591 30.8962C277.41 31.0427 277.163 31.125 276.906 31.125H274.969C274.712 31.125 274.465 31.0427 274.284 30.8962C274.102 30.7497 274 30.551 274 30.3438V28.7812Z" fill="#134074" stroke="#134074" stroke-width="0.000866071"/>
<path d="M276.781 15C277.038 15 277.285 15.0823 277.466 15.2288C277.648 15.3753 277.75 15.574 277.75 15.7812V16.5625H293.25V15.7812C293.25 15.574 293.352 15.3753 293.534 15.2288C293.715 15.0823 293.962 15 294.219 15C294.476 15 294.722 15.0823 294.904 15.2288C295.085 15.3753 295.188 15.574 295.188 15.7812V16.5625H297.125C298.153 16.5625 299.138 16.8917 299.865 17.4778C300.592 18.0638 301 18.8587 301 19.6875V36.875C301 37.7038 300.592 38.4987 299.865 39.0847C299.138 39.6708 298.153 40 297.125 40H273.875C272.847 40 271.862 39.6708 271.135 39.0847C270.408 38.4987 270 37.7038 270 36.875V19.6875C270 18.8587 270.408 18.0638 271.135 17.4778C271.862 16.8917 272.847 16.5625 273.875 16.5625H275.812V15.7812C275.812 15.574 275.915 15.3753 276.096 15.2288C276.278 15.0823 276.524 15 276.781 15ZM271.938 21.25V36.875C271.938 37.2894 272.142 37.6868 272.505 37.9799C272.868 38.2729 273.361 38.4375 273.875 38.4375H297.125C297.639 38.4375 298.132 38.2729 298.495 37.9799C298.858 37.6868 299.062 37.2894 299.062 36.875V21.25H271.938Z" fill="#134074" stroke="#134074" stroke-width="0.000866071"/>
<path d="M132.376 21.6C131.363 21.6 130.669 22.032 130.296 22.896C129.987 23.632 129.816 24.5973 129.784 25.792C129.784 26.0693 129.784 26.4907 129.784 27.056C129.784 27.6213 129.816 28.1653 129.88 28.688C129.944 29.2 130.061 29.7227 130.232 30.256C130.403 30.7893 130.675 31.2053 131.048 31.504C131.421 31.792 131.885 31.936 132.44 31.936C133.336 31.936 134.035 31.6373 134.536 31.04C135.037 30.4427 135.325 29.6587 135.4 28.688L135.688 28.72C135.613 29.8187 135.267 30.6933 134.648 31.344C134.029 31.9947 133.197 32.32 132.152 32.32C130.787 32.32 129.725 31.7813 128.968 30.704C128.211 29.616 127.832 28.2987 127.832 26.752C127.832 25.792 127.997 24.9067 128.328 24.096C128.659 23.2747 129.165 22.6027 129.848 22.08C130.531 21.5467 131.304 21.28 132.168 21.28C133.043 21.28 133.763 21.472 134.328 21.856C134.904 22.24 135.192 22.7147 135.192 23.28C135.192 23.6427 135.075 23.9413 134.84 24.176C134.616 24.4107 134.355 24.528 134.056 24.528C133.757 24.528 133.501 24.4373 133.288 24.256C133.075 24.0747 132.968 23.8347 132.968 23.536C132.968 23.2373 133.048 23.0027 133.208 22.832C133.379 22.6613 133.581 22.576 133.816 22.576C134.189 22.576 134.44 22.7413 134.568 23.072C134.6 23.1573 134.653 23.2 134.728 23.2C134.845 23.2 134.893 23.1467 134.872 23.04C134.819 22.6667 134.557 22.336 134.088 22.048C133.629 21.7493 133.059 21.6 132.376 21.6ZM140.442 31.76V32H136.906V31.76H137.962V21.2H136.826V20.96H137.162C138.004 20.96 138.756 20.8907 139.418 20.752V26.032H139.514C139.695 25.52 139.999 25.1093 140.426 24.8C140.863 24.48 141.348 24.32 141.882 24.32C142.81 24.32 143.444 24.5973 143.786 25.152C144.127 25.696 144.298 26.512 144.298 27.6V31.76H145.354V32H141.818V31.76H142.874V27.824C142.874 26.6187 142.783 25.824 142.602 25.44C142.516 25.2693 142.383 25.1147 142.202 24.976C142.031 24.8373 141.775 24.768 141.434 24.768C141.092 24.768 140.767 24.8907 140.458 25.136C140.159 25.3813 139.935 25.7173 139.786 26.144C139.519 26.9013 139.386 27.808 139.386 28.864V31.76H140.442ZM149.528 24.32C150.797 24.32 151.635 24.608 152.04 25.184C152.456 25.7493 152.664 26.7413 152.664 28.16V30.992C152.664 31.4293 152.76 31.648 152.952 31.648C153.347 31.648 153.608 31.0347 153.736 29.808L154.024 29.84C153.864 31.4933 153.325 32.32 152.408 32.32C152.141 32.32 151.933 32.224 151.784 32.032C151.645 31.84 151.555 31.632 151.512 31.408C151.48 31.1733 151.464 30.8853 151.464 30.544H151.368C151.229 31.1093 150.947 31.5467 150.52 31.856C150.093 32.1653 149.544 32.32 148.872 32.32C148.211 32.32 147.629 32.144 147.128 31.792C146.627 31.4293 146.376 30.912 146.376 30.24C146.376 29.7387 146.52 29.3227 146.808 28.992C147.405 28.3093 148.76 27.968 150.872 27.968C150.989 27.968 151.112 27.968 151.24 27.968V27.184C151.24 26.3413 151.096 25.7067 150.808 25.28C150.52 24.8533 150.019 24.64 149.304 24.64C148.6 24.64 148.083 24.784 147.752 25.072C147.421 25.36 147.256 25.6587 147.256 25.968C147.256 26.064 147.299 26.112 147.384 26.112C147.48 26.112 147.533 26.064 147.544 25.968C147.608 25.6907 147.821 25.552 148.184 25.552C148.419 25.552 148.605 25.6373 148.744 25.808C148.883 25.968 148.952 26.1707 148.952 26.416C148.952 26.6507 148.861 26.8533 148.68 27.024C148.509 27.184 148.28 27.264 147.992 27.264C147.715 27.264 147.469 27.1573 147.256 26.944C147.053 26.72 146.952 26.448 146.952 26.128C146.952 25.5307 147.203 25.0827 147.704 24.784C148.205 24.4747 148.813 24.32 149.528 24.32ZM151.24 29.328V28.256C151.133 28.256 150.963 28.256 150.728 28.256C150.504 28.256 150.232 28.272 149.912 28.304C149.603 28.336 149.283 28.416 148.952 28.544C148.269 28.7893 147.928 29.3333 147.928 30.176C147.928 30.688 148.051 31.0987 148.296 31.408C148.541 31.7173 148.936 31.872 149.48 31.872C150.024 31.872 150.451 31.6267 150.76 31.136C151.08 30.6453 151.24 30.0427 151.24 29.328ZM157.198 24.88V30.32C157.198 31.216 157.257 31.712 157.374 31.808C157.438 31.8613 157.523 31.888 157.63 31.888C157.897 31.888 158.153 31.7333 158.398 31.424C158.654 31.1147 158.862 30.7787 159.022 30.416L159.278 30.512C159.075 31.024 158.803 31.456 158.462 31.808C158.121 32.1493 157.726 32.32 157.278 32.32C156.649 32.32 156.238 32.1333 156.046 31.76C155.865 31.376 155.774 30.7787 155.774 29.968V24.88H154.638V24.64H154.75C155.977 24.64 156.723 23.936 156.99 22.528H157.198V24.64H159.134V24.88H157.198Z" fill="#6FAA11"/>
<defs>
<filter id="filter0_dd_372_526" x="0" y="0" width="414" height="74" filterUnits="userSpaceOnUse" color-interpolation-filters="sRGB">
<feFlood flood-opacity="0" result="BackgroundImageFix"/>
<feColorMatrix in="SourceAlpha" type="matrix" values="0 0 0 0 0 0 0 0 0 0 0 0 0 0 0 0 0 0 127 0" result="hardAlpha"/>
<feMorphology radius="4" operator="erode" in="SourceAlpha" result="effect1_dropShadow_372_526"/>
<feOffset dy="4"/>
<feGaussianBlur stdDeviation="3"/>
<feComposite in2="hardAlpha" operator="out"/>
<feColorMatrix type="matrix" values="0 0 0 0 0 0 0 0 0 0 0 0 0 0 0 0 0 0 0.1 0"/>
<feBlend mode="normal" in2="BackgroundImageFix" result="effect1_dropShadow_372_526"/>
<feColorMatrix in="SourceAlpha" type="matrix" values="0 0 0 0 0 0 0 0 0 0 0 0 0 0 0 0 0 0 127 0" result="hardAlpha"/>
<feMorphology radius="3" operator="erode" in="SourceAlpha" result="effect2_dropShadow_372_526"/>
<feOffset dy="10"/>
<feGaussianBlur stdDeviation="7.5"/>
<feComposite in2="hardAlpha" operator="out"/>
<feColorMatrix type="matrix" values="0 0 0 0 0 0 0 0 0 0 0 0 0 0 0 0 0 0 0.1 0"/>
<feBlend mode="normal" in2="effect1_dropShadow_372_526" result="effect2_dropShadow_372_526"/>
<feBlend mode="normal" in="SourceGraphic" in2="effect2_dropShadow_372_526" result="shape"/>
</filter>
</defs>
</svg>
