<svg width="414" height="74" viewBox="0 0 414 74" fill="none" xmlns="http://www.w3.org/2000/svg">
<mask id="path-1-inside-1_372_558" fill="white">
<path d="M12 27C12 13.1929 23.1929 2 37 2H377C390.807 2 402 13.1929 402 27V27C402 40.8071 390.807 52 377 52H37C23.1929 52 12 40.8071 12 27V27Z"/>
</mask>
<path d="M12 27C12 13.1929 23.1929 2 37 2H377C390.807 2 402 13.1929 402 27V27C402 40.8071 390.807 52 377 52H37C23.1929 52 12 40.8071 12 27V27Z" fill="white"/>
<path d="M12 27C12 12.6406 23.6406 1 38 1H376C390.359 1 402 12.6406 402 27C402 13.7452 390.807 3 377 3H37C23.1929 3 12 13.7452 12 27ZM12 27M402 52H12H402M402 52M12 52V2V52M12 52M402 2V52V2" fill="#C3C6D0" mask="url(#path-1-inside-1_372_558)"/>
<g filter="url(#filter0_dd_372_558)">
<rect x="12" y="2" width="390" height="50" fill="white" fill-opacity="0.01" shape-rendering="crispEdges"/>
</g>
<path d="M44.7071 31.2812C44.1834 31.2812 43.7588 31.926 43.7588 32.7213C43.7588 33.5165 44.1834 34.1613 44.7071 34.1613H52.2933C52.817 34.1613 53.2415 33.5165 53.2415 32.7213C53.2415 31.926 52.817 31.2812 52.2933 31.2812H44.7071Z" fill="#134074"/>
<path fill-rule="evenodd" clip-rule="evenodd" d="M48.5 14C47.6766 14 46.9285 14.2264 46.1169 14.6053C45.3324 14.9716 44.4261 15.5115 43.294 16.186L40.891 17.6177C39.8199 18.2559 38.9621 18.767 38.301 19.253C37.6165 19.7563 37.0906 20.2689 36.7108 20.935C36.3318 21.5998 36.1611 22.3071 36.0793 23.1431C36 23.9533 36 24.9441 36 26.1866V27.9869C36 30.112 36 31.7897 36.1776 33.1013C36.3597 34.4469 36.7425 35.5331 37.6074 36.3919C38.4763 37.2548 39.5819 37.6402 40.9507 37.823C42.2773 38 43.9716 38 46.1068 38H50.8931C53.0284 38 54.7227 38 56.0493 37.823C57.418 37.6402 58.5237 37.2548 59.3926 36.3919C60.2574 35.5331 60.6402 34.4469 60.8224 33.1013C61 31.7897 61 30.1121 61 27.9869V26.1866C61 24.9441 61 23.9533 60.9207 23.1431C60.8388 22.3071 60.6681 21.5998 60.2892 20.935C59.9094 20.2689 59.3836 19.7563 58.699 19.253C58.0379 18.767 57.1801 18.2559 56.109 17.6178L53.7059 16.186C52.574 15.5115 51.6676 14.9715 50.883 14.6053C50.0715 14.2264 49.3234 14 48.5 14ZM44.1739 17.6325C45.355 16.9288 46.1855 16.4352 46.8797 16.1111C47.556 15.7953 48.0351 15.6744 48.5 15.6744C48.9649 15.6744 49.444 15.7953 50.1203 16.1111C50.8145 16.4352 51.645 16.9288 52.8262 17.6325L55.1517 19.0181C56.269 19.6837 57.0534 20.1522 57.6385 20.5824C58.2078 21.0009 58.5352 21.3463 58.7592 21.739C58.984 22.1331 59.1151 22.5938 59.1842 23.2998C59.2549 24.0226 59.2558 24.9348 59.2558 26.2276V27.9256C59.2558 30.1257 59.2541 31.6944 59.0928 32.8855C58.9344 34.0554 58.636 34.7342 58.1386 35.2282C57.6452 35.7181 56.9734 36.009 55.8091 36.1645C54.6165 36.3237 53.0436 36.3256 50.8256 36.3256H46.1744C43.9564 36.3256 42.3835 36.3237 41.191 36.1645C40.0266 36.009 39.3548 35.7181 38.8614 35.2282C38.364 34.7342 38.0656 34.0554 37.9072 32.8855C37.7459 31.6944 37.7442 30.1257 37.7442 27.9256V26.2276C37.7442 24.9348 37.7451 24.0226 37.8158 23.2998C37.8849 22.5938 38.0161 22.1331 38.2408 21.739C38.4647 21.3463 38.7922 21.0009 39.3615 20.5824C39.9466 20.1522 40.731 19.6837 41.8483 19.0181L44.1739 17.6325Z" fill="#134074"/>
<path d="M91 25.4651C91 25.889 91.3905 26.2326 91.8721 26.2326C92.3537 26.2326 92.7442 25.889 92.7442 25.4651H91ZM93.1204 30.7108C92.936 30.3192 92.4259 30.1332 91.9809 30.2954C91.5359 30.4576 91.3246 30.9065 91.5089 31.2981L93.1204 30.7108ZM105.514 36.997L106.144 36.0599L104.643 35.278L104.013 36.2152L105.514 36.997ZM100.856 36.0599L101.486 36.997L102.987 36.2152L102.357 35.278L100.856 36.0599ZM104.013 36.2152C103.789 36.5484 103.211 36.5484 102.987 36.2152L101.486 36.997C102.385 38.3343 104.615 38.3343 105.514 36.997L104.013 36.2152ZM101.756 17.5349H105.244V16H101.756V17.5349ZM114.256 25.4651V26.4884H116V25.4651H114.256ZM98.6192 33.3868C97.1594 33.3646 96.3945 33.2829 95.7949 33.0644L95.1274 34.4824C96.0634 34.8236 97.1295 34.8993 98.5891 34.9214L98.6192 33.3868ZM91.5089 31.2981C92.1875 32.7398 93.4891 33.8852 95.1274 34.4824L95.7949 33.0644C94.584 32.6229 93.6219 31.7764 93.1204 30.7108L91.5089 31.2981ZM114.256 26.4884C114.256 27.6908 114.255 28.5543 114.203 29.2355C114.15 29.91 114.05 30.3498 113.88 30.7108L115.491 31.2981C115.764 30.719 115.884 30.0926 115.943 29.34C116 28.5944 116 27.6699 116 26.4884H114.256ZM108.411 34.9214C109.87 34.8993 110.937 34.8236 111.873 34.4824L111.205 33.0644C110.606 33.2829 109.841 33.3646 108.381 33.3868L108.411 34.9214ZM113.88 30.7108C113.378 31.7764 112.416 32.6229 111.205 33.0644L111.873 34.4824C113.511 33.8852 114.812 32.7398 115.491 31.2981L113.88 30.7108ZM105.244 17.5349C107.164 17.5349 108.543 17.5357 109.618 17.6257C110.681 17.7146 111.357 17.8851 111.896 18.1757L112.807 16.867C111.948 16.4037 110.974 16.1973 109.784 16.0977C108.606 15.9992 107.13 16 105.244 16V17.5349ZM116 25.4651C116 23.8052 116.001 22.5064 115.889 21.4705C115.776 20.4231 115.541 19.5655 115.015 18.8095L113.528 19.6115C113.858 20.0858 114.052 20.6807 114.153 21.6157C114.255 22.5622 114.256 23.7755 114.256 25.4651H116ZM111.896 18.1757C112.561 18.5343 113.12 19.0263 113.528 19.6115L115.015 18.8095C114.463 18.0178 113.707 17.3522 112.807 16.867L111.896 18.1757ZM101.756 16C99.8695 16 98.3936 15.9992 97.2164 16.0977C96.0262 16.1973 95.0517 16.4037 94.1926 16.867L95.1039 18.1757C95.6429 17.8851 96.319 17.7146 97.3815 17.6257C98.457 17.5357 99.8358 17.5349 101.756 17.5349V16ZM92.7442 25.4651C92.7442 23.7755 92.7451 22.5622 92.8474 21.6157C92.9484 20.6807 93.1421 20.0858 93.4724 19.6115L91.9853 18.8095C91.4588 19.5655 91.2242 20.4231 91.111 21.4705C90.9991 22.5064 91 23.8052 91 25.4651H92.7442ZM94.1926 16.867C93.293 17.3522 92.5366 18.0178 91.9853 18.8095L93.4724 19.6115C93.8799 19.0263 94.439 18.5343 95.1039 18.1757L94.1926 16.867ZM102.357 35.278C102.12 34.927 101.913 34.6173 101.712 34.3739C101.499 34.1177 101.256 33.887 100.918 33.7141L100.042 35.041C100.097 35.0691 100.172 35.1206 100.302 35.278C100.443 35.4485 100.603 35.6839 100.856 36.0599L102.357 35.278ZM98.5891 34.9214C99.0997 34.9292 99.4231 34.9349 99.6696 34.9588C99.9 34.9813 99.9893 35.0142 100.042 35.041L100.918 33.7141C100.578 33.5399 100.224 33.4686 99.8616 33.4333C99.5156 33.3996 99.0974 33.3941 98.6192 33.3868L98.5891 34.9214ZM106.144 36.0599C106.397 35.6839 106.557 35.4485 106.698 35.278C106.828 35.1206 106.903 35.0691 106.958 35.041L106.082 33.7141C105.744 33.887 105.5 34.1177 105.288 34.3739C105.087 34.6173 104.88 34.927 104.643 35.278L106.144 36.0599ZM108.381 33.3868C107.903 33.3941 107.484 33.3996 107.138 33.4333C106.776 33.4686 106.422 33.5399 106.082 33.7141L106.958 35.041C107.011 35.0142 107.1 34.9813 107.33 34.9588C107.577 34.9349 107.9 34.9292 108.411 34.9214L108.381 33.3868Z" fill="#134074"/>
<path d="M155.05 23.3086C152.135 23.3086 149.75 25.1687 149.75 27.4421C149.75 29.7155 152.135 31.5756 155.05 31.5756C157.964 31.5756 160.349 29.7155 160.349 27.4421C160.349 25.1687 157.964 23.3086 155.05 23.3086ZM155.05 30.1978C153.106 30.1978 151.517 28.9577 151.517 27.4421C151.517 25.9265 153.106 24.6864 155.05 24.6864C156.993 24.6864 158.583 25.9265 158.583 27.4421C158.583 28.9577 156.993 30.1978 155.05 30.1978Z" fill="#6FAA11"/>
<path d="M155 33.2031C151.71 33.2031 148.552 34.271 146.3 36.1483L145.704 36.6477L146.984 37.595L147.581 37.0955C149.524 35.4766 152.152 34.581 155 34.581C157.849 34.581 160.476 35.4766 162.42 37.0955L163.016 37.595L164.297 36.6477L163.7 36.1483C161.448 34.2882 158.29 33.2031 155 33.2031Z" fill="#6FAA11"/>
<path d="M162.287 24.0938V25.4716C164.363 25.4716 166.284 26.1261 167.719 27.3144L169 26.3672C167.278 24.9205 164.827 24.0938 162.287 24.0938Z" fill="#6FAA11"/>
<path d="M166.505 19.2896C166.505 17.4812 164.606 16 162.287 16C159.968 16 158.069 17.4812 158.069 19.2896C158.069 21.098 159.968 22.5792 162.287 22.5792C164.606 22.5792 166.505 21.098 166.505 19.2896ZM159.836 19.2896C159.836 18.239 160.94 17.3778 162.287 17.3778C163.634 17.3778 164.738 18.239 164.738 19.2896C164.738 20.3402 163.634 21.2013 162.287 21.2013C160.94 21.2013 159.836 20.3402 159.836 19.2896Z" fill="#6FAA11"/>
<path d="M147.713 24.0938C145.173 24.0938 142.722 24.9205 141 26.3672L142.281 27.3144C143.694 26.1261 145.637 25.4716 147.713 25.4716V24.0938Z" fill="#6FAA11"/>
<path d="M151.93 19.2896C151.93 17.4812 150.031 16 147.713 16C145.394 16 143.495 17.4812 143.495 19.2896C143.495 21.098 145.394 22.5792 147.713 22.5792C150.031 22.5792 151.93 21.098 151.93 19.2896ZM147.713 21.2013C146.366 21.2013 145.262 20.3402 145.262 19.2896C145.262 18.239 146.366 17.3778 147.713 17.3778C149.06 17.3778 150.164 18.239 150.164 19.2896C150.164 20.3402 149.06 21.2013 147.713 21.2013Z" fill="#6FAA11"/>
<path opacity="0.4" d="M365.144 26.9046C365.06 26.8925 364.952 26.8925 364.856 26.9046C362.741 26.8325 361.06 25.1033 361.06 22.9778C361.06 20.8043 362.813 19.0391 365 19.0391C367.174 19.0391 368.94 20.8043 368.94 22.9778C368.928 25.1033 367.258 26.8325 365.144 26.9046Z" stroke="#134074" stroke-width="2" stroke-linecap="round" stroke-linejoin="round"/>
<path opacity="0.34" d="M373.06 34.8593C370.931 36.8122 368.109 37.9983 365 37.9983C361.891 37.9983 359.069 36.8122 356.94 34.8593C357.06 33.7331 357.777 32.6308 359.057 31.7682C362.333 29.5877 367.691 29.5877 370.943 31.7682C372.223 32.6308 372.94 33.7331 373.06 34.8593Z" stroke="#134074" stroke-width="2" stroke-linecap="round" stroke-linejoin="round"/>
<path d="M365 37.9998C371.627 37.9998 377 32.6272 377 25.9999C377 19.3725 371.627 14 365 14C358.373 14 353 19.3725 353 25.9999C353 32.6272 358.373 37.9998 365 37.9998Z" stroke="#134074" stroke-width="2" stroke-linecap="round" stroke-linejoin="round"/>
<path d="M298.125 22.7812C298.125 22.574 298.227 22.3753 298.409 22.2288C298.59 22.0823 298.837 22 299.094 22H301.031C301.288 22 301.535 22.0823 301.716 22.2288C301.898 22.3753 302 22.574 302 22.7812V24.3438C302 24.551 301.898 24.7497 301.716 24.8962C301.535 25.0427 301.288 25.125 301.031 25.125H299.094C298.837 25.125 298.59 25.0427 298.409 24.8962C298.227 24.7497 298.125 24.551 298.125 24.3438V22.7812Z" fill="#134074" stroke="#134074" stroke-width="0.000866071"/>
<path d="M298.125 26.7812C298.125 26.574 298.227 26.3753 298.409 26.2288C298.59 26.0823 298.837 26 299.094 26H301.031C301.288 26 301.535 26.0823 301.716 26.2288C301.898 26.3753 302 26.574 302 26.7812V28.3438C302 28.551 301.898 28.7497 301.716 28.8962C301.535 29.0427 301.288 29.125 301.031 29.125H299.094C298.837 29.125 298.59 29.0427 298.409 28.8962C298.227 28.7497 298.125 28.551 298.125 28.3438V26.7812Z" fill="#134074" stroke="#134074" stroke-width="0.000866071"/>
<path d="M292.125 30.7812C292.125 30.574 292.227 30.3753 292.409 30.2288C292.59 30.0823 292.837 30 293.094 30H295.031C295.288 30 295.535 30.0823 295.716 30.2288C295.898 30.3753 296 30.574 296 30.7812V32.3438C296 32.551 295.898 32.7497 295.716 32.8962C295.535 33.0427 295.288 33.125 295.031 33.125H293.094C292.837 33.125 292.59 33.0427 292.409 32.8962C292.227 32.7497 292.125 32.551 292.125 32.3438V30.7812Z" fill="#134074" stroke="#134074" stroke-width="0.000866071"/>
<path d="M292 22.7812C292 22.574 292.102 22.3753 292.284 22.2288C292.465 22.0823 292.712 22 292.969 22H294.906C295.163 22 295.41 22.0823 295.591 22.2288C295.773 22.3753 295.875 22.574 295.875 22.7812V24.3438C295.875 24.551 295.773 24.7497 295.591 24.8962C295.41 25.0427 295.163 25.125 294.906 25.125H292.969C292.712 25.125 292.465 25.0427 292.284 24.8962C292.102 24.7497 292 24.551 292 24.3438V22.7812Z" fill="#134074" stroke="#134074" stroke-width="0.000866071"/>
<path d="M292 26.7812C292 26.574 292.102 26.3753 292.284 26.2288C292.465 26.0823 292.712 26 292.969 26H294.906C295.163 26 295.41 26.0823 295.591 26.2288C295.773 26.3753 295.875 26.574 295.875 26.7812V28.3438C295.875 28.551 295.773 28.7497 295.591 28.8962C295.41 29.0427 295.163 29.125 294.906 29.125H292.969C292.712 29.125 292.465 29.0427 292.284 28.8962C292.102 28.7497 292 28.551 292 28.3438V26.7812Z" fill="#134074" stroke="#134074" stroke-width="0.000866071"/>
<path d="M286 30.7812C286 30.574 286.102 30.3753 286.284 30.2288C286.465 30.0823 286.712 30 286.969 30H288.906C289.163 30 289.41 30.0823 289.591 30.2288C289.773 30.3753 289.875 30.574 289.875 30.7812V32.3438C289.875 32.551 289.773 32.7497 289.591 32.8962C289.41 33.0427 289.163 33.125 288.906 33.125H286.969C286.712 33.125 286.465 33.0427 286.284 32.8962C286.102 32.7497 286 32.551 286 32.3438V30.7812Z" fill="#134074" stroke="#134074" stroke-width="0.000866071"/>
<path d="M286 22.7812C286 22.574 286.102 22.3753 286.284 22.2288C286.465 22.0823 286.712 22 286.969 22H288.906C289.163 22 289.41 22.0823 289.591 22.2288C289.773 22.3753 289.875 22.574 289.875 22.7812V24.3438C289.875 24.551 289.773 24.7497 289.591 24.8962C289.41 25.0427 289.163 25.125 288.906 25.125H286.969C286.712 25.125 286.465 25.0427 286.284 24.8962C286.102 24.7497 286 24.551 286 24.3438V22.7812Z" fill="#134074" stroke="#134074" stroke-width="0.000866071"/>
<path d="M286 26.7812C286 26.574 286.102 26.3753 286.284 26.2288C286.465 26.0823 286.712 26 286.969 26H288.906C289.163 26 289.41 26.0823 289.591 26.2288C289.773 26.3753 289.875 26.574 289.875 26.7812V28.3438C289.875 28.551 289.773 28.7497 289.591 28.8962C289.41 29.0427 289.163 29.125 288.906 29.125H286.969C286.712 29.125 286.465 29.0427 286.284 28.8962C286.102 28.7497 286 28.551 286 28.3438V26.7812Z" fill="#134074" stroke="#134074" stroke-width="0.000866071"/>
<path d="M280 30.7812C280 30.574 280.102 30.3753 280.284 30.2288C280.465 30.0823 280.712 30 280.969 30H282.906C283.163 30 283.41 30.0823 283.591 30.2288C283.773 30.3753 283.875 30.574 283.875 30.7812V32.3438C283.875 32.551 283.773 32.7497 283.591 32.8962C283.41 33.0427 283.163 33.125 282.906 33.125H280.969C280.712 33.125 280.465 33.0427 280.284 32.8962C280.102 32.7497 280 32.551 280 32.3438V30.7812Z" fill="#134074" stroke="#134074" stroke-width="0.000866071"/>
<path d="M280 30.7812C280 30.574 280.102 30.3753 280.284 30.2288C280.465 30.0823 280.712 30 280.969 30H282.906C283.163 30 283.41 30.0823 283.591 30.2288C283.773 30.3753 283.875 30.574 283.875 30.7812V32.3438C283.875 32.551 283.773 32.7497 283.591 32.8962C283.41 33.0427 283.163 33.125 282.906 33.125H280.969C280.712 33.125 280.465 33.0427 280.284 32.8962C280.102 32.7497 280 32.551 280 32.3438V30.7812Z" fill="#134074" stroke="#134074" stroke-width="0.000866071"/>
<path d="M280 26.7812C280 26.574 280.102 26.3753 280.284 26.2288C280.465 26.0823 280.712 26 280.969 26H282.906C283.163 26 283.41 26.0823 283.591 26.2288C283.773 26.3753 283.875 26.574 283.875 26.7812V28.3438C283.875 28.551 283.773 28.7497 283.591 28.8962C283.41 29.0427 283.163 29.125 282.906 29.125H280.969C280.712 29.125 280.465 29.0427 280.284 28.8962C280.102 28.7497 280 28.551 280 28.3438V26.7812Z" fill="#134074" stroke="#134074" stroke-width="0.000866071"/>
<path d="M282.781 13C283.038 13 283.285 13.0823 283.466 13.2288C283.648 13.3753 283.75 13.574 283.75 13.7812V14.5625H299.25V13.7812C299.25 13.574 299.352 13.3753 299.534 13.2288C299.715 13.0823 299.962 13 300.219 13C300.476 13 300.722 13.0823 300.904 13.2288C301.085 13.3753 301.188 13.574 301.188 13.7812V14.5625H303.125C304.153 14.5625 305.138 14.8917 305.865 15.4778C306.592 16.0638 307 16.8587 307 17.6875V34.875C307 35.7038 306.592 36.4987 305.865 37.0847C305.138 37.6708 304.153 38 303.125 38H279.875C278.847 38 277.862 37.6708 277.135 37.0847C276.408 36.4987 276 35.7038 276 34.875V17.6875C276 16.8587 276.408 16.0638 277.135 15.4778C277.862 14.8917 278.847 14.5625 279.875 14.5625H281.812V13.7812C281.812 13.574 281.915 13.3753 282.096 13.2288C282.278 13.0823 282.524 13 282.781 13ZM277.938 19.25V34.875C277.938 35.2894 278.142 35.6868 278.505 35.9799C278.868 36.2729 279.361 36.4375 279.875 36.4375H303.125C303.639 36.4375 304.132 36.2729 304.495 35.9799C304.858 35.6868 305.062 35.2894 305.062 34.875V19.25H277.938Z" fill="#134074" stroke="#134074" stroke-width="0.000866071"/>
<path d="M181.376 24.6C180.363 24.6 179.669 25.032 179.296 25.896C178.987 26.632 178.816 27.5973 178.784 28.792C178.784 29.0693 178.784 29.4907 178.784 30.056C178.784 30.6213 178.816 31.1653 178.88 31.688C178.944 32.2 179.061 32.7227 179.232 33.256C179.403 33.7893 179.675 34.2053 180.048 34.504C180.421 34.792 180.885 34.936 181.44 34.936C182.336 34.936 183.035 34.6373 183.536 34.04C184.037 33.4427 184.325 32.6587 184.4 31.688L184.688 31.72C184.613 32.8187 184.267 33.6933 183.648 34.344C183.029 34.9947 182.197 35.32 181.152 35.32C179.787 35.32 178.725 34.7813 177.968 33.704C177.211 32.616 176.832 31.2987 176.832 29.752C176.832 28.792 176.997 27.9067 177.328 27.096C177.659 26.2747 178.165 25.6027 178.848 25.08C179.531 24.5467 180.304 24.28 181.168 24.28C182.043 24.28 182.763 24.472 183.328 24.856C183.904 25.24 184.192 25.7147 184.192 26.28C184.192 26.6427 184.075 26.9413 183.84 27.176C183.616 27.4107 183.355 27.528 183.056 27.528C182.757 27.528 182.501 27.4373 182.288 27.256C182.075 27.0747 181.968 26.8347 181.968 26.536C181.968 26.2373 182.048 26.0027 182.208 25.832C182.379 25.6613 182.581 25.576 182.816 25.576C183.189 25.576 183.44 25.7413 183.568 26.072C183.6 26.1573 183.653 26.2 183.728 26.2C183.845 26.2 183.893 26.1467 183.872 26.04C183.819 25.6667 183.557 25.336 183.088 25.048C182.629 24.7493 182.059 24.6 181.376 24.6ZM192.226 34.2C191.607 34.9467 190.743 35.32 189.634 35.32C188.524 35.32 187.66 34.9467 187.042 34.2C186.423 33.4533 186.114 32.4933 186.114 31.32C186.114 30.1467 186.423 29.1867 187.042 28.44C187.66 27.6933 188.524 27.32 189.634 27.32C190.743 27.32 191.607 27.6933 192.226 28.44C192.844 29.1867 193.154 30.1467 193.154 31.32C193.154 32.4933 192.844 33.4533 192.226 34.2ZM191.57 32.392C191.591 32.0827 191.602 31.7253 191.602 31.32C191.602 30.9147 191.591 30.5573 191.57 30.248C191.548 29.9387 191.495 29.608 191.41 29.256C191.335 28.904 191.228 28.616 191.09 28.392C190.962 28.1573 190.77 27.9653 190.514 27.816C190.268 27.6667 189.975 27.592 189.634 27.592C189.292 27.592 188.994 27.6667 188.738 27.816C188.492 27.9653 188.3 28.1573 188.162 28.392C188.034 28.616 187.927 28.904 187.842 29.256C187.767 29.608 187.719 29.9387 187.698 30.248C187.676 30.5573 187.666 30.9147 187.666 31.32C187.666 31.7253 187.676 32.0827 187.698 32.392C187.719 32.7013 187.767 33.032 187.842 33.384C187.927 33.736 188.034 34.0293 188.162 34.264C188.3 34.488 188.492 34.6747 188.738 34.824C188.994 34.9733 189.292 35.048 189.634 35.048C189.975 35.048 190.268 34.9733 190.514 34.824C190.77 34.6747 190.962 34.488 191.09 34.264C191.228 34.0293 191.335 33.736 191.41 33.384C191.495 33.032 191.548 32.7013 191.57 32.392ZM198.176 34.76V35H194.64V34.76H195.696V27.88H194.56V27.64H194.896C195.739 27.64 196.491 27.5707 197.152 27.432V29.032H197.248C197.429 28.52 197.728 28.1093 198.144 27.8C198.56 27.48 199.035 27.32 199.568 27.32C200.837 27.32 201.589 27.8907 201.824 29.032H201.92C202.101 28.52 202.4 28.1093 202.816 27.8C203.232 27.48 203.707 27.32 204.24 27.32C205.157 27.32 205.771 27.5867 206.08 28.12C206.389 28.6533 206.544 29.48 206.544 30.6V34.76H207.6V35H204.064V34.76H205.12V30.232C205.12 29.016 204.944 28.2587 204.592 27.96C204.421 27.832 204.203 27.768 203.936 27.768C202.507 27.768 201.792 29.1333 201.792 31.864V34.76H202.848V35H199.392V34.76H200.448V30.232C200.448 29.016 200.272 28.2587 199.92 27.96C199.749 27.832 199.531 27.768 199.264 27.768C197.835 27.768 197.12 29.1333 197.12 31.864V34.76H198.176ZM212.098 34.76V35H208.562V34.76H209.618V27.88H208.482V27.64H208.818C209.661 27.64 210.413 27.5707 211.074 27.432V29.032H211.17C211.351 28.52 211.65 28.1093 212.066 27.8C212.482 27.48 212.957 27.32 213.49 27.32C214.759 27.32 215.511 27.8907 215.746 29.032H215.842C216.023 28.52 216.322 28.1093 216.738 27.8C217.154 27.48 217.629 27.32 218.162 27.32C219.079 27.32 219.693 27.5867 220.002 28.12C220.311 28.6533 220.466 29.48 220.466 30.6V34.76H221.522V35H217.986V34.76H219.042V30.232C219.042 29.016 218.866 28.2587 218.514 27.96C218.343 27.832 218.125 27.768 217.858 27.768C216.429 27.768 215.714 29.1333 215.714 31.864V34.76H216.77V35H213.314V34.76H214.37V30.232C214.37 29.016 214.194 28.2587 213.842 27.96C213.671 27.832 213.453 27.768 213.186 27.768C211.757 27.768 211.042 29.1333 211.042 31.864V34.76H212.098ZM228.34 27.88H227.204V27.64H227.54C228.372 27.64 229.113 27.5707 229.764 27.432V34.76H230.82V35H228.308V33.608H228.212C228.03 34.12 227.721 34.536 227.284 34.856C226.857 35.1653 226.377 35.32 225.844 35.32C224.937 35.32 224.324 35.048 224.004 34.504C223.694 33.96 223.54 33.1387 223.54 32.04V27.88H222.404V27.64H222.74C223.572 27.64 224.313 27.5707 224.964 27.432V31.816C224.964 32.8187 225.001 33.448 225.076 33.704C225.15 33.96 225.23 34.1787 225.316 34.36C225.486 34.7013 225.774 34.872 226.18 34.872C226.596 34.872 226.953 34.7493 227.252 34.504C227.561 34.2587 227.79 33.9227 227.94 33.496C228.206 32.7387 228.34 31.832 228.34 30.776V27.88ZM235.598 34.76V35H232.062V34.76H233.118V27.88H231.982V27.64H232.318C233.161 27.64 233.913 27.5707 234.574 27.432V29.032H234.67C234.851 28.52 235.155 28.1093 235.582 27.8C236.019 27.48 236.505 27.32 237.038 27.32C237.966 27.32 238.601 27.5973 238.942 28.152C239.283 28.696 239.454 29.512 239.454 30.6V34.76H240.51V35H236.974V34.76H238.03V30.824C238.03 29.6187 237.939 28.824 237.758 28.44C237.673 28.2693 237.539 28.1147 237.358 27.976C237.187 27.8373 236.931 27.768 236.59 27.768C236.249 27.768 235.923 27.8907 235.614 28.136C235.315 28.3813 235.091 28.7173 234.942 29.144C234.675 29.9013 234.542 30.808 234.542 31.864V34.76H235.598ZM243.98 34.76H245.036V35H241.5V34.76H242.556V27.88H241.42V27.64H241.756C242.588 27.64 243.329 27.5707 243.98 27.432V34.76ZM242.54 25.896C242.369 25.7147 242.284 25.4907 242.284 25.224C242.284 24.9573 242.369 24.7333 242.54 24.552C242.721 24.3707 242.945 24.28 243.212 24.28C243.479 24.28 243.703 24.3707 243.884 24.552C244.065 24.7333 244.156 24.9573 244.156 25.224C244.156 25.4907 244.065 25.7147 243.884 25.896C243.703 26.0667 243.479 26.152 243.212 26.152C242.945 26.152 242.721 26.0667 242.54 25.896ZM248.683 27.88V33.32C248.683 34.216 248.741 34.712 248.859 34.808C248.923 34.8613 249.008 34.888 249.115 34.888C249.381 34.888 249.637 34.7333 249.883 34.424C250.139 34.1147 250.347 33.7787 250.507 33.416L250.763 33.512C250.56 34.024 250.288 34.456 249.947 34.808C249.605 35.1493 249.211 35.32 248.763 35.32C248.133 35.32 247.723 35.1333 247.531 34.76C247.349 34.376 247.259 33.7787 247.259 32.968V27.88H246.123V27.64H246.235C247.461 27.64 248.208 26.936 248.475 25.528H248.683V27.64H250.619V27.88H248.683ZM255.116 38.728C254.583 38.728 254.156 38.536 253.836 38.152C253.516 37.7787 253.356 37.2933 253.356 36.696C253.356 35.7893 253.825 34.9947 254.764 34.312L254.748 34.248C254.023 34.2053 253.388 33.7093 252.844 32.76C252.3 31.8107 252.028 30.4827 252.028 28.776V27.88H250.892V27.64H251.228C252.071 27.64 252.823 27.5707 253.484 27.432V28.408C253.484 29.912 253.66 31.128 254.012 32.056C254.375 32.9733 254.892 33.432 255.564 33.432C256.044 33.432 256.545 33.0693 257.068 32.344C257.591 31.6187 257.852 30.7973 257.852 29.88C257.852 29.3573 257.777 28.8987 257.628 28.504C257.479 28.0987 257.244 27.832 256.924 27.704C256.817 27.6507 256.695 27.624 256.556 27.624C256.417 27.624 256.348 27.672 256.348 27.768C256.348 27.8533 256.396 27.9013 256.492 27.912C256.78 27.9653 256.919 28.1467 256.908 28.456C256.908 29.0533 256.631 29.352 256.076 29.352C255.82 29.352 255.607 29.2613 255.436 29.08C255.276 28.8987 255.196 28.664 255.196 28.376C255.196 28.0773 255.313 27.8267 255.548 27.624C255.783 27.4213 256.065 27.32 256.396 27.32C256.993 27.32 257.431 27.5547 257.708 28.024C257.996 28.4933 258.14 29.0907 258.14 29.816C258.14 31.5333 257.436 32.8613 256.028 33.8C256.007 33.8213 255.895 33.896 255.692 34.024C255.489 34.152 255.361 34.2373 255.308 34.28C255.265 34.312 255.153 34.392 254.972 34.52C254.791 34.648 254.668 34.744 254.604 34.808C254.551 34.872 254.455 34.968 254.316 35.096C254.177 35.2347 254.081 35.352 254.028 35.448C253.975 35.544 253.911 35.6613 253.836 35.8C253.708 36.0347 253.644 36.3653 253.644 36.792C253.644 37.2293 253.777 37.608 254.044 37.928C254.311 38.2587 254.609 38.424 254.94 38.424C255.047 38.424 255.1 38.3813 255.1 38.296C255.1 38.2107 255.052 38.1573 254.956 38.136C254.679 38.072 254.54 37.8587 254.54 37.496C254.54 37.272 254.62 37.0853 254.78 36.936C254.951 36.7973 255.153 36.728 255.388 36.728C255.633 36.728 255.836 36.8133 255.996 36.984C256.167 37.1653 256.252 37.3947 256.252 37.672C256.252 37.9493 256.14 38.1947 255.916 38.408C255.692 38.6213 255.425 38.728 255.116 38.728Z" fill="#6FAA11"/>
<defs>
<filter id="filter0_dd_372_558" x="0" y="0" width="414" height="74" filterUnits="userSpaceOnUse" color-interpolation-filters="sRGB">
<feFlood flood-opacity="0" result="BackgroundImageFix"/>
<feColorMatrix in="SourceAlpha" type="matrix" values="0 0 0 0 0 0 0 0 0 0 0 0 0 0 0 0 0 0 127 0" result="hardAlpha"/>
<feMorphology radius="4" operator="erode" in="SourceAlpha" result="effect1_dropShadow_372_558"/>
<feOffset dy="4"/>
<feGaussianBlur stdDeviation="3"/>
<feComposite in2="hardAlpha" operator="out"/>
<feColorMatrix type="matrix" values="0 0 0 0 0 0 0 0 0 0 0 0 0 0 0 0 0 0 0.1 0"/>
<feBlend mode="normal" in2="BackgroundImageFix" result="effect1_dropShadow_372_558"/>
<feColorMatrix in="SourceAlpha" type="matrix" values="0 0 0 0 0 0 0 0 0 0 0 0 0 0 0 0 0 0 127 0" result="hardAlpha"/>
<feMorphology radius="3" operator="erode" in="SourceAlpha" result="effect2_dropShadow_372_558"/>
<feOffset dy="10"/>
<feGaussianBlur stdDeviation="7.5"/>
<feComposite in2="hardAlpha" operator="out"/>
<feColorMatrix type="matrix" values="0 0 0 0 0 0 0 0 0 0 0 0 0 0 0 0 0 0 0.1 0"/>
<feBlend mode="normal" in2="effect1_dropShadow_372_558" result="effect2_dropShadow_372_558"/>
<feBlend mode="normal" in="SourceGraphic" in2="effect2_dropShadow_372_558" result="shape"/>
</filter>
</defs>
</svg>
