<svg width="414" height="74" viewBox="0 0 414 74" fill="none" xmlns="http://www.w3.org/2000/svg">
<mask id="path-1-inside-1_372_462" fill="white">
<path d="M12 27C12 13.1929 23.1929 2 37 2H377C390.807 2 402 13.1929 402 27V27C402 40.8071 390.807 52 377 52H37C23.1929 52 12 40.8071 12 27V27Z"/>
</mask>
<path d="M12 27C12 13.1929 23.1929 2 37 2H377C390.807 2 402 13.1929 402 27V27C402 40.8071 390.807 52 377 52H37C23.1929 52 12 40.8071 12 27V27Z" fill="white"/>
<path d="M12 27C12 12.6406 23.6406 1 38 1H376C390.359 1 402 12.6406 402 27C402 13.7452 390.807 3 377 3H37C23.1929 3 12 13.7452 12 27ZM12 27M402 52H12H402M402 52M12 52V2V52M12 52M402 2V52V2" fill="#C3C6D0" mask="url(#path-1-inside-1_372_462)"/>
<g filter="url(#filter0_dd_372_462)">
<rect x="12" y="2" width="390" height="50" fill="white" fill-opacity="0.01" shape-rendering="crispEdges"/>
</g>
<path d="M44.7071 31.2812C44.1834 31.2812 43.7588 31.926 43.7588 32.7213C43.7588 33.5165 44.1834 34.1613 44.7071 34.1613H52.2933C52.817 34.1613 53.2415 33.5165 53.2415 32.7213C53.2415 31.926 52.817 31.2812 52.2933 31.2812H44.7071Z" fill="#6FAA11"/>
<path fill-rule="evenodd" clip-rule="evenodd" d="M48.5 14C47.6766 14 46.9285 14.2264 46.1169 14.6053C45.3324 14.9716 44.4261 15.5115 43.294 16.186L40.891 17.6177C39.8199 18.2559 38.9621 18.767 38.301 19.253C37.6165 19.7563 37.0906 20.2689 36.7108 20.935C36.3318 21.5998 36.1611 22.3071 36.0793 23.1431C36 23.9533 36 24.9441 36 26.1866V27.9869C36 30.112 36 31.7897 36.1776 33.1013C36.3597 34.4469 36.7425 35.5331 37.6074 36.3919C38.4763 37.2548 39.5819 37.6402 40.9507 37.823C42.2773 38 43.9716 38 46.1068 38H50.8931C53.0284 38 54.7227 38 56.0493 37.823C57.418 37.6402 58.5237 37.2548 59.3926 36.3919C60.2574 35.5331 60.6402 34.4469 60.8224 33.1013C61 31.7897 61 30.1121 61 27.9869V26.1866C61 24.9441 61 23.9533 60.9207 23.1431C60.8388 22.3071 60.6681 21.5998 60.2892 20.935C59.9094 20.2689 59.3836 19.7563 58.699 19.253C58.0379 18.767 57.1801 18.2559 56.109 17.6178L53.7059 16.186C52.574 15.5115 51.6676 14.9715 50.883 14.6053C50.0715 14.2264 49.3234 14 48.5 14ZM44.1739 17.6325C45.355 16.9288 46.1855 16.4352 46.8797 16.1111C47.556 15.7953 48.0351 15.6744 48.5 15.6744C48.9649 15.6744 49.444 15.7953 50.1203 16.1111C50.8145 16.4352 51.645 16.9288 52.8262 17.6325L55.1517 19.0181C56.269 19.6837 57.0534 20.1522 57.6385 20.5824C58.2078 21.0009 58.5352 21.3463 58.7592 21.739C58.984 22.1331 59.1151 22.5938 59.1842 23.2998C59.2549 24.0226 59.2558 24.9348 59.2558 26.2276V27.9256C59.2558 30.1257 59.2541 31.6944 59.0928 32.8855C58.9344 34.0554 58.636 34.7342 58.1386 35.2282C57.6452 35.7181 56.9734 36.009 55.8091 36.1645C54.6165 36.3237 53.0436 36.3256 50.8256 36.3256H46.1744C43.9564 36.3256 42.3835 36.3237 41.191 36.1645C40.0266 36.009 39.3548 35.7181 38.8614 35.2282C38.364 34.7342 38.0656 34.0554 37.9072 32.8855C37.7459 31.6944 37.7442 30.1257 37.7442 27.9256V26.2276C37.7442 24.9348 37.7451 24.0226 37.8158 23.2998C37.8849 22.5938 38.0161 22.1331 38.2408 21.739C38.4647 21.3463 38.7922 21.0009 39.3615 20.5824C39.9466 20.1522 40.731 19.6837 41.8483 19.0181L44.1739 17.6325Z" fill="#6FAA11"/>
<path d="M127 24.4651C127 24.889 127.39 25.2326 127.872 25.2326C128.354 25.2326 128.744 24.889 128.744 24.4651H127ZM129.12 29.7108C128.936 29.3192 128.426 29.1332 127.981 29.2954C127.536 29.4576 127.325 29.9065 127.509 30.2981L129.12 29.7108ZM141.514 35.997L142.144 35.0599L140.643 34.278L140.013 35.2152L141.514 35.997ZM136.856 35.0599L137.486 35.997L138.987 35.2152L138.357 34.278L136.856 35.0599ZM140.013 35.2152C139.789 35.5484 139.211 35.5484 138.987 35.2152L137.486 35.997C138.385 37.3343 140.615 37.3343 141.514 35.997L140.013 35.2152ZM137.756 16.5349H141.244V15H137.756V16.5349ZM150.256 24.4651V25.4884H152V24.4651H150.256ZM134.619 32.3868C133.159 32.3646 132.394 32.2829 131.795 32.0644L131.127 33.4824C132.063 33.8236 133.13 33.8993 134.589 33.9214L134.619 32.3868ZM127.509 30.2981C128.188 31.7398 129.489 32.8852 131.127 33.4824L131.795 32.0644C130.584 31.6229 129.622 30.7764 129.12 29.7108L127.509 30.2981ZM150.256 25.4884C150.256 26.6908 150.255 27.5543 150.203 28.2355C150.15 28.91 150.05 29.3498 149.88 29.7108L151.491 30.2981C151.764 29.719 151.884 29.0926 151.943 28.34C152 27.5944 152 26.6699 152 25.4884H150.256ZM144.411 33.9214C145.87 33.8993 146.937 33.8236 147.873 33.4824L147.205 32.0644C146.606 32.2829 145.841 32.3646 144.381 32.3868L144.411 33.9214ZM149.88 29.7108C149.378 30.7764 148.416 31.6229 147.205 32.0644L147.873 33.4824C149.511 32.8852 150.812 31.7398 151.491 30.2981L149.88 29.7108ZM141.244 16.5349C143.164 16.5349 144.543 16.5357 145.618 16.6257C146.681 16.7146 147.357 16.8851 147.896 17.1757L148.807 15.867C147.948 15.4037 146.974 15.1973 145.784 15.0977C144.606 14.9992 143.13 15 141.244 15V16.5349ZM152 24.4651C152 22.8052 152.001 21.5064 151.889 20.4705C151.776 19.4231 151.541 18.5655 151.015 17.8095L149.528 18.6115C149.858 19.0858 150.052 19.6807 150.153 20.6157C150.255 21.5622 150.256 22.7755 150.256 24.4651H152ZM147.896 17.1757C148.561 17.5343 149.12 18.0263 149.528 18.6115L151.015 17.8095C150.463 17.0178 149.707 16.3522 148.807 15.867L147.896 17.1757ZM137.756 15C135.87 15 134.394 14.9992 133.216 15.0977C132.026 15.1973 131.052 15.4037 130.193 15.867L131.104 17.1757C131.643 16.8851 132.319 16.7146 133.381 16.6257C134.457 16.5357 135.836 16.5349 137.756 16.5349V15ZM128.744 24.4651C128.744 22.7755 128.745 21.5622 128.847 20.6157C128.948 19.6807 129.142 19.0858 129.472 18.6115L127.985 17.8095C127.459 18.5655 127.224 19.4231 127.111 20.4705C126.999 21.5064 127 22.8052 127 24.4651H128.744ZM130.193 15.867C129.293 16.3522 128.537 17.0178 127.985 17.8095L129.472 18.6115C129.88 18.0263 130.439 17.5343 131.104 17.1757L130.193 15.867ZM138.357 34.278C138.12 33.927 137.913 33.6173 137.712 33.3739C137.499 33.1177 137.256 32.887 136.918 32.7141L136.042 34.041C136.097 34.0691 136.172 34.1206 136.302 34.278C136.443 34.4485 136.603 34.6839 136.856 35.0599L138.357 34.278ZM134.589 33.9214C135.1 33.9292 135.423 33.9349 135.67 33.9588C135.9 33.9813 135.989 34.0142 136.042 34.041L136.918 32.7141C136.578 32.5399 136.224 32.4686 135.862 32.4333C135.516 32.3996 135.097 32.3941 134.619 32.3868L134.589 33.9214ZM142.144 35.0599C142.397 34.6839 142.557 34.4485 142.698 34.278C142.828 34.1206 142.903 34.0691 142.958 34.041L142.082 32.7141C141.744 32.887 141.5 33.1177 141.288 33.3739C141.087 33.6173 140.88 33.927 140.643 34.278L142.144 35.0599ZM144.381 32.3868C143.903 32.3941 143.484 32.3996 143.138 32.4333C142.776 32.4686 142.422 32.5399 142.082 32.7141L142.958 34.041C143.011 34.0142 143.1 33.9813 143.33 33.9588C143.577 33.9349 143.9 33.9292 144.411 33.9214L144.381 32.3868Z" fill="#134074"/>
<path d="M218.05 21.3086C215.135 21.3086 212.75 23.1687 212.75 25.4421C212.75 27.7155 215.135 29.5756 218.05 29.5756C220.964 29.5756 223.349 27.7155 223.349 25.4421C223.349 23.1687 220.964 21.3086 218.05 21.3086ZM218.05 28.1978C216.106 28.1978 214.517 26.9577 214.517 25.4421C214.517 23.9265 216.106 22.6864 218.05 22.6864C219.993 22.6864 221.583 23.9265 221.583 25.4421C221.583 26.9577 219.993 28.1978 218.05 28.1978Z" fill="#134074"/>
<path d="M218 31.2031C214.71 31.2031 211.552 32.271 209.3 34.1483L208.704 34.6477L209.984 35.595L210.581 35.0955C212.524 33.4766 215.152 32.581 218 32.581C220.849 32.581 223.476 33.4766 225.42 35.0955L226.016 35.595L227.297 34.6477L226.7 34.1483C224.448 32.2882 221.29 31.2031 218 31.2031Z" fill="#134074"/>
<path d="M225.287 22.0938V23.4716C227.363 23.4716 229.284 24.1261 230.719 25.3144L232 24.3672C230.278 22.9205 227.827 22.0938 225.287 22.0938Z" fill="#134074"/>
<path d="M229.505 17.2896C229.505 15.4812 227.606 14 225.287 14C222.968 14 221.069 15.4812 221.069 17.2896C221.069 19.098 222.968 20.5792 225.287 20.5792C227.606 20.5792 229.505 19.098 229.505 17.2896ZM222.836 17.2896C222.836 16.239 223.94 15.3778 225.287 15.3778C226.634 15.3778 227.738 16.239 227.738 17.2896C227.738 18.3402 226.634 19.2013 225.287 19.2013C223.94 19.2013 222.836 18.3402 222.836 17.2896Z" fill="#134074"/>
<path d="M210.713 22.0938C208.173 22.0938 205.722 22.9205 204 24.3672L205.281 25.3144C206.694 24.1261 208.637 23.4716 210.713 23.4716V22.0938Z" fill="#134074"/>
<path d="M214.93 17.2896C214.93 15.4812 213.031 14 210.713 14C208.394 14 206.495 15.4812 206.495 17.2896C206.495 19.098 208.394 20.5792 210.713 20.5792C213.031 20.5792 214.93 19.098 214.93 17.2896ZM210.713 19.2013C209.366 19.2013 208.262 18.3402 208.262 17.2896C208.262 16.239 209.366 15.3778 210.713 15.3778C212.06 15.3778 213.164 16.239 213.164 17.2896C213.164 18.3402 212.06 19.2013 210.713 19.2013Z" fill="#134074"/>
<path opacity="0.4" d="M365.144 26.9046C365.06 26.8925 364.952 26.8925 364.856 26.9046C362.741 26.8325 361.06 25.1033 361.06 22.9778C361.06 20.8043 362.813 19.0391 365 19.0391C367.174 19.0391 368.94 20.8043 368.94 22.9778C368.928 25.1033 367.258 26.8325 365.144 26.9046Z" stroke="#134074" stroke-width="2" stroke-linecap="round" stroke-linejoin="round"/>
<path opacity="0.34" d="M373.06 34.8593C370.931 36.8122 368.109 37.9983 365 37.9983C361.891 37.9983 359.069 36.8122 356.94 34.8593C357.06 33.7331 357.777 32.6308 359.057 31.7682C362.333 29.5877 367.691 29.5877 370.943 31.7682C372.223 32.6308 372.94 33.7331 373.06 34.8593Z" stroke="#134074" stroke-width="2" stroke-linecap="round" stroke-linejoin="round"/>
<path d="M365 37.9998C371.627 37.9998 377 32.6272 377 25.9999C377 19.3725 371.627 14 365 14C358.373 14 353 19.3725 353 25.9999C353 32.6272 358.373 37.9998 365 37.9998Z" stroke="#134074" stroke-width="2" stroke-linecap="round" stroke-linejoin="round"/>
<path d="M299.125 23.7812C299.125 23.574 299.227 23.3753 299.409 23.2288C299.59 23.0823 299.837 23 300.094 23H302.031C302.288 23 302.535 23.0823 302.716 23.2288C302.898 23.3753 303 23.574 303 23.7812V25.3438C303 25.551 302.898 25.7497 302.716 25.8962C302.535 26.0427 302.288 26.125 302.031 26.125H300.094C299.837 26.125 299.59 26.0427 299.409 25.8962C299.227 25.7497 299.125 25.551 299.125 25.3438V23.7812Z" fill="#134074" stroke="#134074" stroke-width="0.000866071"/>
<path d="M299.125 27.7812C299.125 27.574 299.227 27.3753 299.409 27.2288C299.59 27.0823 299.837 27 300.094 27H302.031C302.288 27 302.535 27.0823 302.716 27.2288C302.898 27.3753 303 27.574 303 27.7812V29.3438C303 29.551 302.898 29.7497 302.716 29.8962C302.535 30.0427 302.288 30.125 302.031 30.125H300.094C299.837 30.125 299.59 30.0427 299.409 29.8962C299.227 29.7497 299.125 29.551 299.125 29.3438V27.7812Z" fill="#134074" stroke="#134074" stroke-width="0.000866071"/>
<path d="M293.125 31.7812C293.125 31.574 293.227 31.3753 293.409 31.2288C293.59 31.0823 293.837 31 294.094 31H296.031C296.288 31 296.535 31.0823 296.716 31.2288C296.898 31.3753 297 31.574 297 31.7812V33.3438C297 33.551 296.898 33.7497 296.716 33.8962C296.535 34.0427 296.288 34.125 296.031 34.125H294.094C293.837 34.125 293.59 34.0427 293.409 33.8962C293.227 33.7497 293.125 33.551 293.125 33.3438V31.7812Z" fill="#134074" stroke="#134074" stroke-width="0.000866071"/>
<path d="M293 23.7812C293 23.574 293.102 23.3753 293.284 23.2288C293.465 23.0823 293.712 23 293.969 23H295.906C296.163 23 296.41 23.0823 296.591 23.2288C296.773 23.3753 296.875 23.574 296.875 23.7812V25.3438C296.875 25.551 296.773 25.7497 296.591 25.8962C296.41 26.0427 296.163 26.125 295.906 26.125H293.969C293.712 26.125 293.465 26.0427 293.284 25.8962C293.102 25.7497 293 25.551 293 25.3438V23.7812Z" fill="#134074" stroke="#134074" stroke-width="0.000866071"/>
<path d="M293 27.7812C293 27.574 293.102 27.3753 293.284 27.2288C293.465 27.0823 293.712 27 293.969 27H295.906C296.163 27 296.41 27.0823 296.591 27.2288C296.773 27.3753 296.875 27.574 296.875 27.7812V29.3438C296.875 29.551 296.773 29.7497 296.591 29.8962C296.41 30.0427 296.163 30.125 295.906 30.125H293.969C293.712 30.125 293.465 30.0427 293.284 29.8962C293.102 29.7497 293 29.551 293 29.3438V27.7812Z" fill="#134074" stroke="#134074" stroke-width="0.000866071"/>
<path d="M287 31.7812C287 31.574 287.102 31.3753 287.284 31.2288C287.465 31.0823 287.712 31 287.969 31H289.906C290.163 31 290.41 31.0823 290.591 31.2288C290.773 31.3753 290.875 31.574 290.875 31.7812V33.3438C290.875 33.551 290.773 33.7497 290.591 33.8962C290.41 34.0427 290.163 34.125 289.906 34.125H287.969C287.712 34.125 287.465 34.0427 287.284 33.8962C287.102 33.7497 287 33.551 287 33.3438V31.7812Z" fill="#134074" stroke="#134074" stroke-width="0.000866071"/>
<path d="M287 23.7812C287 23.574 287.102 23.3753 287.284 23.2288C287.465 23.0823 287.712 23 287.969 23H289.906C290.163 23 290.41 23.0823 290.591 23.2288C290.773 23.3753 290.875 23.574 290.875 23.7812V25.3438C290.875 25.551 290.773 25.7497 290.591 25.8962C290.41 26.0427 290.163 26.125 289.906 26.125H287.969C287.712 26.125 287.465 26.0427 287.284 25.8962C287.102 25.7497 287 25.551 287 25.3438V23.7812Z" fill="#134074" stroke="#134074" stroke-width="0.000866071"/>
<path d="M287 27.7812C287 27.574 287.102 27.3753 287.284 27.2288C287.465 27.0823 287.712 27 287.969 27H289.906C290.163 27 290.41 27.0823 290.591 27.2288C290.773 27.3753 290.875 27.574 290.875 27.7812V29.3438C290.875 29.551 290.773 29.7497 290.591 29.8962C290.41 30.0427 290.163 30.125 289.906 30.125H287.969C287.712 30.125 287.465 30.0427 287.284 29.8962C287.102 29.7497 287 29.551 287 29.3438V27.7812Z" fill="#134074" stroke="#134074" stroke-width="0.000866071"/>
<path d="M281 31.7812C281 31.574 281.102 31.3753 281.284 31.2288C281.465 31.0823 281.712 31 281.969 31H283.906C284.163 31 284.41 31.0823 284.591 31.2288C284.773 31.3753 284.875 31.574 284.875 31.7812V33.3438C284.875 33.551 284.773 33.7497 284.591 33.8962C284.41 34.0427 284.163 34.125 283.906 34.125H281.969C281.712 34.125 281.465 34.0427 281.284 33.8962C281.102 33.7497 281 33.551 281 33.3438V31.7812Z" fill="#134074" stroke="#134074" stroke-width="0.000866071"/>
<path d="M281 31.7812C281 31.574 281.102 31.3753 281.284 31.2288C281.465 31.0823 281.712 31 281.969 31H283.906C284.163 31 284.41 31.0823 284.591 31.2288C284.773 31.3753 284.875 31.574 284.875 31.7812V33.3438C284.875 33.551 284.773 33.7497 284.591 33.8962C284.41 34.0427 284.163 34.125 283.906 34.125H281.969C281.712 34.125 281.465 34.0427 281.284 33.8962C281.102 33.7497 281 33.551 281 33.3438V31.7812Z" fill="#134074" stroke="#134074" stroke-width="0.000866071"/>
<path d="M281 27.7812C281 27.574 281.102 27.3753 281.284 27.2288C281.465 27.0823 281.712 27 281.969 27H283.906C284.163 27 284.41 27.0823 284.591 27.2288C284.773 27.3753 284.875 27.574 284.875 27.7812V29.3438C284.875 29.551 284.773 29.7497 284.591 29.8962C284.41 30.0427 284.163 30.125 283.906 30.125H281.969C281.712 30.125 281.465 30.0427 281.284 29.8962C281.102 29.7497 281 29.551 281 29.3438V27.7812Z" fill="#134074" stroke="#134074" stroke-width="0.000866071"/>
<path d="M283.781 14C284.038 14 284.285 14.0823 284.466 14.2288C284.648 14.3753 284.75 14.574 284.75 14.7812V15.5625H300.25V14.7812C300.25 14.574 300.352 14.3753 300.534 14.2288C300.715 14.0823 300.962 14 301.219 14C301.476 14 301.722 14.0823 301.904 14.2288C302.085 14.3753 302.188 14.574 302.188 14.7812V15.5625H304.125C305.153 15.5625 306.138 15.8917 306.865 16.4778C307.592 17.0638 308 17.8587 308 18.6875V35.875C308 36.7038 307.592 37.4987 306.865 38.0847C306.138 38.6708 305.153 39 304.125 39H280.875C279.847 39 278.862 38.6708 278.135 38.0847C277.408 37.4987 277 36.7038 277 35.875V18.6875C277 17.8587 277.408 17.0638 278.135 16.4778C278.862 15.8917 279.847 15.5625 280.875 15.5625H282.812V14.7812C282.812 14.574 282.915 14.3753 283.096 14.2288C283.278 14.0823 283.524 14 283.781 14ZM278.938 20.25V35.875C278.938 36.2894 279.142 36.6868 279.505 36.9799C279.868 37.2729 280.361 37.4375 280.875 37.4375H304.125C304.639 37.4375 305.132 37.2729 305.495 36.9799C305.858 36.6868 306.062 36.2894 306.062 35.875V20.25H278.938Z" fill="#134074" stroke="#134074" stroke-width="0.000866071"/>
<path d="M71 26.64L70.248 26.672C68.1573 26.7787 66.76 27.0827 66.056 27.584C65.3947 28.064 65.064 28.7787 65.064 29.728C65.064 30.3573 65.1813 30.8587 65.416 31.232C65.6507 31.5947 65.9813 31.776 66.408 31.776C66.8027 31.776 67 31.472 67 30.864V21.856H65.832V21.6H69.992V21.856H68.664V30.32C68.664 30.9813 68.4987 31.4827 68.168 31.824C67.848 32.1547 67.3947 32.32 66.808 32.32C66.232 32.32 65.7413 32.1067 65.336 31.68C64.9413 31.2427 64.744 30.624 64.744 29.824C64.744 28.864 65.0107 28.1387 65.544 27.648C66.0987 27.1573 66.76 26.8373 67.528 26.688C68.4347 26.5067 69.6187 26.3947 71.08 26.352C72.232 26.32 72.952 26.272 73.24 26.208C73.5387 26.1333 73.8267 26.0587 74.104 25.984C74.3813 25.9093 74.584 25.824 74.712 25.728C74.84 25.632 74.9893 25.5093 75.16 25.36C75.3413 25.2107 75.4747 25.0453 75.56 24.864C75.752 24.416 75.848 23.952 75.848 23.472C75.848 22.992 75.7947 22.624 75.688 22.368C75.5813 22.112 75.4373 21.984 75.256 21.984C74.904 21.984 74.728 22.2667 74.728 22.832V31.744H76.056V32H71.896V31.744H73.064V23.12C73.064 22.5013 73.2027 22.0427 73.48 21.744C73.768 21.4453 74.1467 21.296 74.616 21.296C75.0853 21.296 75.4587 21.4827 75.736 21.856C76.024 22.2187 76.168 22.72 76.168 23.36C76.168 23.9893 76.0613 24.5067 75.848 24.912C75.6453 25.3173 75.4107 25.6267 75.144 25.84C74.888 26.0427 74.488 26.208 73.944 26.336C73.4 26.4533 72.952 26.528 72.6 26.56C72.248 26.5813 71.7147 26.608 71 26.64ZM83.6944 31.2C83.0757 31.9467 82.2117 32.32 81.1024 32.32C79.993 32.32 79.129 31.9467 78.5104 31.2C77.8917 30.4533 77.5824 29.4933 77.5824 28.32C77.5824 27.1467 77.8917 26.1867 78.5104 25.44C79.129 24.6933 79.993 24.32 81.1024 24.32C82.2117 24.32 83.0757 24.6933 83.6944 25.44C84.313 26.1867 84.6224 27.1467 84.6224 28.32C84.6224 29.4933 84.313 30.4533 83.6944 31.2ZM83.0384 29.392C83.0597 29.0827 83.0704 28.7253 83.0704 28.32C83.0704 27.9147 83.0597 27.5573 83.0384 27.248C83.017 26.9387 82.9637 26.608 82.8784 26.256C82.8037 25.904 82.697 25.616 82.5584 25.392C82.4304 25.1573 82.2384 24.9653 81.9824 24.816C81.737 24.6667 81.4437 24.592 81.1024 24.592C80.761 24.592 80.4624 24.6667 80.2064 24.816C79.961 24.9653 79.769 25.1573 79.6304 25.392C79.5024 25.616 79.3957 25.904 79.3104 26.256C79.2357 26.608 79.1877 26.9387 79.1664 27.248C79.145 27.5573 79.1344 27.9147 79.1344 28.32C79.1344 28.7253 79.145 29.0827 79.1664 29.392C79.1877 29.7013 79.2357 30.032 79.3104 30.384C79.3957 30.736 79.5024 31.0293 79.6304 31.264C79.769 31.488 79.961 31.6747 80.2064 31.824C80.4624 31.9733 80.761 32.048 81.1024 32.048C81.4437 32.048 81.737 31.9733 81.9824 31.824C82.2384 31.6747 82.4304 31.488 82.5584 31.264C82.697 31.0293 82.8037 30.736 82.8784 30.384C82.9637 30.032 83.017 29.7013 83.0384 29.392ZM89.6448 31.76V32H86.1088V31.76H87.1648V24.88H86.0288V24.64H86.3648C87.2074 24.64 87.9594 24.5707 88.6208 24.432V26.032H88.7168C88.8981 25.52 89.1968 25.1093 89.6128 24.8C90.0288 24.48 90.5034 24.32 91.0368 24.32C92.3061 24.32 93.0581 24.8907 93.2928 26.032H93.3888C93.5701 25.52 93.8688 25.1093 94.2847 24.8C94.7008 24.48 95.1754 24.32 95.7088 24.32C96.6261 24.32 97.2394 24.5867 97.5488 25.12C97.8581 25.6533 98.0128 26.48 98.0128 27.6V31.76H99.0688V32H95.5328V31.76H96.5888V27.232C96.5888 26.016 96.4128 25.2587 96.0608 24.96C95.8901 24.832 95.6714 24.768 95.4048 24.768C93.9754 24.768 93.2608 26.1333 93.2608 28.864V31.76H94.3168V32H90.8608V31.76H91.9168V27.232C91.9168 26.016 91.7408 25.2587 91.3888 24.96C91.2181 24.832 90.9994 24.768 90.7328 24.768C89.3034 24.768 88.5888 26.1333 88.5888 28.864V31.76H89.6448ZM103.807 24.32C104.607 24.32 105.273 24.4907 105.807 24.832C106.351 25.1733 106.623 25.6853 106.623 26.368C106.623 27.424 106.02 28.0747 104.815 28.32C104.207 28.4373 103.449 28.496 102.543 28.496H101.791V28.96C101.791 29.824 101.967 30.528 102.319 31.072C102.681 31.6053 103.204 31.872 103.887 31.872C104.58 31.872 105.119 31.6693 105.503 31.264C105.897 30.8587 106.175 30.336 106.335 29.696L106.623 29.728C106.452 30.5067 106.105 31.136 105.583 31.616C105.071 32.0853 104.42 32.32 103.631 32.32C102.521 32.32 101.679 31.9573 101.103 31.232C100.527 30.496 100.239 29.5253 100.239 28.32C100.239 27.1147 100.548 26.1493 101.167 25.424C101.785 24.688 102.665 24.32 103.807 24.32ZM101.791 28.208H102.351C103.215 28.208 103.817 28.1227 104.159 27.952C104.511 27.7813 104.751 27.5733 104.879 27.328C105.007 27.072 105.071 26.7147 105.071 26.256C105.071 25.7973 104.953 25.408 104.719 25.088C104.495 24.7573 104.148 24.592 103.679 24.592C103.209 24.592 102.825 24.7627 102.527 25.104C102.239 25.4347 102.041 25.824 101.935 26.272C101.839 26.72 101.791 27.216 101.791 27.76V28.208Z" fill="#6FAA11"/>
<defs>
<filter id="filter0_dd_372_462" x="0" y="0" width="414" height="74" filterUnits="userSpaceOnUse" color-interpolation-filters="sRGB">
<feFlood flood-opacity="0" result="BackgroundImageFix"/>
<feColorMatrix in="SourceAlpha" type="matrix" values="0 0 0 0 0 0 0 0 0 0 0 0 0 0 0 0 0 0 127 0" result="hardAlpha"/>
<feMorphology radius="4" operator="erode" in="SourceAlpha" result="effect1_dropShadow_372_462"/>
<feOffset dy="4"/>
<feGaussianBlur stdDeviation="3"/>
<feComposite in2="hardAlpha" operator="out"/>
<feColorMatrix type="matrix" values="0 0 0 0 0 0 0 0 0 0 0 0 0 0 0 0 0 0 0.1 0"/>
<feBlend mode="normal" in2="BackgroundImageFix" result="effect1_dropShadow_372_462"/>
<feColorMatrix in="SourceAlpha" type="matrix" values="0 0 0 0 0 0 0 0 0 0 0 0 0 0 0 0 0 0 127 0" result="hardAlpha"/>
<feMorphology radius="3" operator="erode" in="SourceAlpha" result="effect2_dropShadow_372_462"/>
<feOffset dy="10"/>
<feGaussianBlur stdDeviation="7.5"/>
<feComposite in2="hardAlpha" operator="out"/>
<feColorMatrix type="matrix" values="0 0 0 0 0 0 0 0 0 0 0 0 0 0 0 0 0 0 0.1 0"/>
<feBlend mode="normal" in2="effect1_dropShadow_372_462" result="effect2_dropShadow_372_462"/>
<feBlend mode="normal" in="SourceGraphic" in2="effect2_dropShadow_372_462" result="shape"/>
</filter>
</defs>
</svg>
