<svg width="414" height="74" viewBox="0 0 414 74" fill="none" xmlns="http://www.w3.org/2000/svg">
<mask id="path-1-inside-1_372_590" fill="white">
<path d="M12 27C12 13.1929 23.1929 2 37 2H377C390.807 2 402 13.1929 402 27V27C402 40.8071 390.807 52 377 52H37C23.1929 52 12 40.8071 12 27V27Z"/>
</mask>
<path d="M12 27C12 13.1929 23.1929 2 37 2H377C390.807 2 402 13.1929 402 27V27C402 40.8071 390.807 52 377 52H37C23.1929 52 12 40.8071 12 27V27Z" fill="white"/>
<path d="M12 27C12 12.6406 23.6406 1 38 1H376C390.359 1 402 12.6406 402 27C402 13.7452 390.807 3 377 3H37C23.1929 3 12 13.7452 12 27ZM12 27M402 52H12H402M402 52M12 52V2V52M12 52M402 2V52V2" fill="#C3C6D0" mask="url(#path-1-inside-1_372_590)"/>
<g filter="url(#filter0_dd_372_590)">
<rect x="12" y="2" width="390" height="50" fill="white" fill-opacity="0.01" shape-rendering="crispEdges"/>
</g>
<path d="M44.7071 31.2812C44.1834 31.2812 43.7588 31.926 43.7588 32.7213C43.7588 33.5165 44.1834 34.1613 44.7071 34.1613H52.2933C52.817 34.1613 53.2415 33.5165 53.2415 32.7213C53.2415 31.926 52.817 31.2812 52.2933 31.2812H44.7071Z" fill="#134074"/>
<path fill-rule="evenodd" clip-rule="evenodd" d="M48.5 14C47.6766 14 46.9285 14.2264 46.1169 14.6053C45.3324 14.9716 44.4261 15.5115 43.294 16.186L40.891 17.6177C39.8199 18.2559 38.9621 18.767 38.301 19.253C37.6165 19.7563 37.0906 20.2689 36.7108 20.935C36.3318 21.5998 36.1611 22.3071 36.0793 23.1431C36 23.9533 36 24.9441 36 26.1866V27.9869C36 30.112 36 31.7897 36.1776 33.1013C36.3597 34.4469 36.7425 35.5331 37.6074 36.3919C38.4763 37.2548 39.5819 37.6402 40.9507 37.823C42.2773 38 43.9716 38 46.1068 38H50.8931C53.0284 38 54.7227 38 56.0493 37.823C57.418 37.6402 58.5237 37.2548 59.3926 36.3919C60.2574 35.5331 60.6402 34.4469 60.8224 33.1013C61 31.7897 61 30.1121 61 27.9869V26.1866C61 24.9441 61 23.9533 60.9207 23.1431C60.8388 22.3071 60.6681 21.5998 60.2892 20.935C59.9094 20.2689 59.3836 19.7563 58.699 19.253C58.0379 18.767 57.1801 18.2559 56.109 17.6178L53.7059 16.186C52.574 15.5115 51.6676 14.9715 50.883 14.6053C50.0715 14.2264 49.3234 14 48.5 14ZM44.1739 17.6325C45.355 16.9288 46.1855 16.4352 46.8797 16.1111C47.556 15.7953 48.0351 15.6744 48.5 15.6744C48.9649 15.6744 49.444 15.7953 50.1203 16.1111C50.8145 16.4352 51.645 16.9288 52.8262 17.6325L55.1517 19.0181C56.269 19.6837 57.0534 20.1522 57.6385 20.5824C58.2078 21.0009 58.5352 21.3463 58.7592 21.739C58.984 22.1331 59.1151 22.5938 59.1842 23.2998C59.2549 24.0226 59.2558 24.9348 59.2558 26.2276V27.9256C59.2558 30.1257 59.2541 31.6944 59.0928 32.8855C58.9344 34.0554 58.636 34.7342 58.1386 35.2282C57.6452 35.7181 56.9734 36.009 55.8091 36.1645C54.6165 36.3237 53.0436 36.3256 50.8256 36.3256H46.1744C43.9564 36.3256 42.3835 36.3237 41.191 36.1645C40.0266 36.009 39.3548 35.7181 38.8614 35.2282C38.364 34.7342 38.0656 34.0554 37.9072 32.8855C37.7459 31.6944 37.7442 30.1257 37.7442 27.9256V26.2276C37.7442 24.9348 37.7451 24.0226 37.8158 23.2998C37.8849 22.5938 38.0161 22.1331 38.2408 21.739C38.4647 21.3463 38.7922 21.0009 39.3615 20.5824C39.9466 20.1522 40.731 19.6837 41.8483 19.0181L44.1739 17.6325Z" fill="#134074"/>
<path d="M110 25.4651C110 25.889 110.39 26.2326 110.872 26.2326C111.354 26.2326 111.744 25.889 111.744 25.4651H110ZM112.12 30.7108C111.936 30.3192 111.426 30.1332 110.981 30.2954C110.536 30.4576 110.325 30.9065 110.509 31.2981L112.12 30.7108ZM124.514 36.997L125.144 36.0599L123.643 35.278L123.013 36.2152L124.514 36.997ZM119.856 36.0599L120.486 36.997L121.987 36.2152L121.357 35.278L119.856 36.0599ZM123.013 36.2152C122.789 36.5484 122.211 36.5484 121.987 36.2152L120.486 36.997C121.385 38.3343 123.615 38.3343 124.514 36.997L123.013 36.2152ZM120.756 17.5349H124.244V16H120.756V17.5349ZM133.256 25.4651V26.4884H135V25.4651H133.256ZM117.619 33.3868C116.159 33.3646 115.394 33.2829 114.795 33.0644L114.127 34.4824C115.063 34.8236 116.13 34.8993 117.589 34.9214L117.619 33.3868ZM110.509 31.2981C111.188 32.7398 112.489 33.8852 114.127 34.4824L114.795 33.0644C113.584 32.6229 112.622 31.7764 112.12 30.7108L110.509 31.2981ZM133.256 26.4884C133.256 27.6908 133.255 28.5543 133.203 29.2355C133.15 29.91 133.05 30.3498 132.88 30.7108L134.491 31.2981C134.764 30.719 134.884 30.0926 134.943 29.34C135 28.5944 135 27.6699 135 26.4884H133.256ZM127.411 34.9214C128.87 34.8993 129.937 34.8236 130.873 34.4824L130.205 33.0644C129.606 33.2829 128.841 33.3646 127.381 33.3868L127.411 34.9214ZM132.88 30.7108C132.378 31.7764 131.416 32.6229 130.205 33.0644L130.873 34.4824C132.511 33.8852 133.812 32.7398 134.491 31.2981L132.88 30.7108ZM124.244 17.5349C126.164 17.5349 127.543 17.5357 128.618 17.6257C129.681 17.7146 130.357 17.8851 130.896 18.1757L131.807 16.867C130.948 16.4037 129.974 16.1973 128.784 16.0977C127.606 15.9992 126.13 16 124.244 16V17.5349ZM135 25.4651C135 23.8052 135.001 22.5064 134.889 21.4705C134.776 20.4231 134.541 19.5655 134.015 18.8095L132.528 19.6115C132.858 20.0858 133.052 20.6807 133.153 21.6157C133.255 22.5622 133.256 23.7755 133.256 25.4651H135ZM130.896 18.1757C131.561 18.5343 132.12 19.0263 132.528 19.6115L134.015 18.8095C133.463 18.0178 132.707 17.3522 131.807 16.867L130.896 18.1757ZM120.756 16C118.87 16 117.394 15.9992 116.216 16.0977C115.026 16.1973 114.052 16.4037 113.193 16.867L114.104 18.1757C114.643 17.8851 115.319 17.7146 116.381 17.6257C117.457 17.5357 118.836 17.5349 120.756 17.5349V16ZM111.744 25.4651C111.744 23.7755 111.745 22.5622 111.847 21.6157C111.948 20.6807 112.142 20.0858 112.472 19.6115L110.985 18.8095C110.459 19.5655 110.224 20.4231 110.111 21.4705C109.999 22.5064 110 23.8052 110 25.4651H111.744ZM113.193 16.867C112.293 17.3522 111.537 18.0178 110.985 18.8095L112.472 19.6115C112.88 19.0263 113.439 18.5343 114.104 18.1757L113.193 16.867ZM121.357 35.278C121.12 34.927 120.913 34.6173 120.712 34.3739C120.499 34.1177 120.256 33.887 119.918 33.7141L119.042 35.041C119.097 35.0691 119.172 35.1206 119.302 35.278C119.443 35.4485 119.603 35.6839 119.856 36.0599L121.357 35.278ZM117.589 34.9214C118.1 34.9292 118.423 34.9349 118.67 34.9588C118.9 34.9813 118.989 35.0142 119.042 35.041L119.918 33.7141C119.578 33.5399 119.224 33.4686 118.862 33.4333C118.516 33.3996 118.097 33.3941 117.619 33.3868L117.589 34.9214ZM125.144 36.0599C125.397 35.6839 125.557 35.4485 125.698 35.278C125.828 35.1206 125.903 35.0691 125.958 35.041L125.082 33.7141C124.744 33.887 124.5 34.1177 124.288 34.3739C124.087 34.6173 123.88 34.927 123.643 35.278L125.144 36.0599ZM127.381 33.3868C126.903 33.3941 126.484 33.3996 126.138 33.4333C125.776 33.4686 125.422 33.5399 125.082 33.7141L125.958 35.041C126.011 35.0142 126.1 34.9813 126.33 34.9588C126.577 34.9349 126.9 34.9292 127.411 34.9214L127.381 33.3868Z" fill="#134074"/>
<path d="M193.05 24.3086C190.135 24.3086 187.75 26.1687 187.75 28.4421C187.75 30.7155 190.135 32.5756 193.05 32.5756C195.964 32.5756 198.349 30.7155 198.349 28.4421C198.349 26.1687 195.964 24.3086 193.05 24.3086ZM193.05 31.1978C191.106 31.1978 189.517 29.9577 189.517 28.4421C189.517 26.9265 191.106 25.6864 193.05 25.6864C194.993 25.6864 196.583 26.9265 196.583 28.4421C196.583 29.9577 194.993 31.1978 193.05 31.1978Z" fill="#134074"/>
<path d="M193 34.2031C189.71 34.2031 186.552 35.271 184.3 37.1483L183.704 37.6477L184.984 38.595L185.581 38.0955C187.524 36.4766 190.152 35.581 193 35.581C195.849 35.581 198.476 36.4766 200.42 38.0955L201.016 38.595L202.297 37.6477L201.7 37.1483C199.448 35.2882 196.29 34.2031 193 34.2031Z" fill="#134074"/>
<path d="M200.287 25.0938V26.4716C202.363 26.4716 204.284 27.1261 205.719 28.3144L207 27.3672C205.278 25.9205 202.827 25.0938 200.287 25.0938Z" fill="#134074"/>
<path d="M204.505 20.2896C204.505 18.4812 202.606 17 200.287 17C197.968 17 196.069 18.4812 196.069 20.2896C196.069 22.098 197.968 23.5792 200.287 23.5792C202.606 23.5792 204.505 22.098 204.505 20.2896ZM197.836 20.2896C197.836 19.239 198.94 18.3778 200.287 18.3778C201.634 18.3778 202.738 19.239 202.738 20.2896C202.738 21.3402 201.634 22.2013 200.287 22.2013C198.94 22.2013 197.836 21.3402 197.836 20.2896Z" fill="#134074"/>
<path d="M185.713 25.0938C183.173 25.0938 180.722 25.9205 179 27.3672L180.281 28.3144C181.694 27.1261 183.637 26.4716 185.713 26.4716V25.0938Z" fill="#134074"/>
<path d="M189.93 20.2896C189.93 18.4812 188.031 17 185.713 17C183.394 17 181.495 18.4812 181.495 20.2896C181.495 22.098 183.394 23.5792 185.713 23.5792C188.031 23.5792 189.93 22.098 189.93 20.2896ZM185.713 22.2013C184.366 22.2013 183.262 21.3402 183.262 20.2896C183.262 19.239 184.366 18.3778 185.713 18.3778C187.06 18.3778 188.164 19.239 188.164 20.2896C188.164 21.3402 187.06 22.2013 185.713 22.2013Z" fill="#134074"/>
<path opacity="0.4" d="M365.144 26.9046C365.06 26.8925 364.952 26.8925 364.856 26.9046C362.741 26.8325 361.06 25.1033 361.06 22.9778C361.06 20.8043 362.813 19.0391 365 19.0391C367.174 19.0391 368.94 20.8043 368.94 22.9778C368.928 25.1033 367.258 26.8325 365.144 26.9046Z" stroke="#134074" stroke-width="2" stroke-linecap="round" stroke-linejoin="round"/>
<path opacity="0.34" d="M373.06 34.8593C370.931 36.8122 368.109 37.9983 365 37.9983C361.891 37.9983 359.069 36.8122 356.94 34.8593C357.06 33.7331 357.777 32.6308 359.057 31.7682C362.333 29.5877 367.691 29.5877 370.943 31.7682C372.223 32.6308 372.94 33.7331 373.06 34.8593Z" stroke="#134074" stroke-width="2" stroke-linecap="round" stroke-linejoin="round"/>
<path d="M365 37.9998C371.627 37.9998 377 32.6272 377 25.9999C377 19.3725 371.627 14 365 14C358.373 14 353 19.3725 353 25.9999C353 32.6272 358.373 37.9998 365 37.9998Z" stroke="#134074" stroke-width="2" stroke-linecap="round" stroke-linejoin="round"/>
<path d="M260.125 24.7812C260.125 24.574 260.227 24.3753 260.409 24.2288C260.59 24.0823 260.837 24 261.094 24H263.031C263.288 24 263.535 24.0823 263.716 24.2288C263.898 24.3753 264 24.574 264 24.7812V26.3438C264 26.551 263.898 26.7497 263.716 26.8962C263.535 27.0427 263.288 27.125 263.031 27.125H261.094C260.837 27.125 260.59 27.0427 260.409 26.8962C260.227 26.7497 260.125 26.551 260.125 26.3438V24.7812Z" fill="#6FAA11" stroke="#6FAA11" stroke-width="0.000866071"/>
<path d="M260.125 28.7812C260.125 28.574 260.227 28.3753 260.409 28.2288C260.59 28.0823 260.837 28 261.094 28H263.031C263.288 28 263.535 28.0823 263.716 28.2288C263.898 28.3753 264 28.574 264 28.7812V30.3438C264 30.551 263.898 30.7497 263.716 30.8962C263.535 31.0427 263.288 31.125 263.031 31.125H261.094C260.837 31.125 260.59 31.0427 260.409 30.8962C260.227 30.7497 260.125 30.551 260.125 30.3438V28.7812Z" fill="#6FAA11" stroke="#6FAA11" stroke-width="0.000866071"/>
<path d="M254.125 32.7812C254.125 32.574 254.227 32.3753 254.409 32.2288C254.59 32.0823 254.837 32 255.094 32H257.031C257.288 32 257.535 32.0823 257.716 32.2288C257.898 32.3753 258 32.574 258 32.7812V34.3438C258 34.551 257.898 34.7497 257.716 34.8962C257.535 35.0427 257.288 35.125 257.031 35.125H255.094C254.837 35.125 254.59 35.0427 254.409 34.8962C254.227 34.7497 254.125 34.551 254.125 34.3438V32.7812Z" fill="#6FAA11" stroke="#6FAA11" stroke-width="0.000866071"/>
<path d="M254 24.7812C254 24.574 254.102 24.3753 254.284 24.2288C254.465 24.0823 254.712 24 254.969 24H256.906C257.163 24 257.41 24.0823 257.591 24.2288C257.773 24.3753 257.875 24.574 257.875 24.7812V26.3438C257.875 26.551 257.773 26.7497 257.591 26.8962C257.41 27.0427 257.163 27.125 256.906 27.125H254.969C254.712 27.125 254.465 27.0427 254.284 26.8962C254.102 26.7497 254 26.551 254 26.3438V24.7812Z" fill="#6FAA11" stroke="#6FAA11" stroke-width="0.000866071"/>
<path d="M254 28.7812C254 28.574 254.102 28.3753 254.284 28.2288C254.465 28.0823 254.712 28 254.969 28H256.906C257.163 28 257.41 28.0823 257.591 28.2288C257.773 28.3753 257.875 28.574 257.875 28.7812V30.3438C257.875 30.551 257.773 30.7497 257.591 30.8962C257.41 31.0427 257.163 31.125 256.906 31.125H254.969C254.712 31.125 254.465 31.0427 254.284 30.8962C254.102 30.7497 254 30.551 254 30.3438V28.7812Z" fill="#6FAA11" stroke="#6FAA11" stroke-width="0.000866071"/>
<path d="M248 32.7812C248 32.574 248.102 32.3753 248.284 32.2288C248.465 32.0823 248.712 32 248.969 32H250.906C251.163 32 251.41 32.0823 251.591 32.2288C251.773 32.3753 251.875 32.574 251.875 32.7812V34.3438C251.875 34.551 251.773 34.7497 251.591 34.8962C251.41 35.0427 251.163 35.125 250.906 35.125H248.969C248.712 35.125 248.465 35.0427 248.284 34.8962C248.102 34.7497 248 34.551 248 34.3438V32.7812Z" fill="#6FAA11" stroke="#6FAA11" stroke-width="0.000866071"/>
<path d="M248 24.7812C248 24.574 248.102 24.3753 248.284 24.2288C248.465 24.0823 248.712 24 248.969 24H250.906C251.163 24 251.41 24.0823 251.591 24.2288C251.773 24.3753 251.875 24.574 251.875 24.7812V26.3438C251.875 26.551 251.773 26.7497 251.591 26.8962C251.41 27.0427 251.163 27.125 250.906 27.125H248.969C248.712 27.125 248.465 27.0427 248.284 26.8962C248.102 26.7497 248 26.551 248 26.3438V24.7812Z" fill="#6FAA11" stroke="#6FAA11" stroke-width="0.000866071"/>
<path d="M248 28.7812C248 28.574 248.102 28.3753 248.284 28.2288C248.465 28.0823 248.712 28 248.969 28H250.906C251.163 28 251.41 28.0823 251.591 28.2288C251.773 28.3753 251.875 28.574 251.875 28.7812V30.3438C251.875 30.551 251.773 30.7497 251.591 30.8962C251.41 31.0427 251.163 31.125 250.906 31.125H248.969C248.712 31.125 248.465 31.0427 248.284 30.8962C248.102 30.7497 248 30.551 248 30.3438V28.7812Z" fill="#6FAA11" stroke="#6FAA11" stroke-width="0.000866071"/>
<path d="M242 32.7812C242 32.574 242.102 32.3753 242.284 32.2288C242.465 32.0823 242.712 32 242.969 32H244.906C245.163 32 245.41 32.0823 245.591 32.2288C245.773 32.3753 245.875 32.574 245.875 32.7812V34.3438C245.875 34.551 245.773 34.7497 245.591 34.8962C245.41 35.0427 245.163 35.125 244.906 35.125H242.969C242.712 35.125 242.465 35.0427 242.284 34.8962C242.102 34.7497 242 34.551 242 34.3438V32.7812Z" fill="#6FAA11" stroke="#6FAA11" stroke-width="0.000866071"/>
<path d="M242 32.7812C242 32.574 242.102 32.3753 242.284 32.2288C242.465 32.0823 242.712 32 242.969 32H244.906C245.163 32 245.41 32.0823 245.591 32.2288C245.773 32.3753 245.875 32.574 245.875 32.7812V34.3438C245.875 34.551 245.773 34.7497 245.591 34.8962C245.41 35.0427 245.163 35.125 244.906 35.125H242.969C242.712 35.125 242.465 35.0427 242.284 34.8962C242.102 34.7497 242 34.551 242 34.3438V32.7812Z" fill="#6FAA11" stroke="#6FAA11" stroke-width="0.000866071"/>
<path d="M242 28.7812C242 28.574 242.102 28.3753 242.284 28.2288C242.465 28.0823 242.712 28 242.969 28H244.906C245.163 28 245.41 28.0823 245.591 28.2288C245.773 28.3753 245.875 28.574 245.875 28.7812V30.3438C245.875 30.551 245.773 30.7497 245.591 30.8962C245.41 31.0427 245.163 31.125 244.906 31.125H242.969C242.712 31.125 242.465 31.0427 242.284 30.8962C242.102 30.7497 242 30.551 242 30.3438V28.7812Z" fill="#6FAA11" stroke="#6FAA11" stroke-width="0.000866071"/>
<path d="M244.781 15C245.038 15 245.285 15.0823 245.466 15.2288C245.648 15.3753 245.75 15.574 245.75 15.7812V16.5625H261.25V15.7812C261.25 15.574 261.352 15.3753 261.534 15.2288C261.715 15.0823 261.962 15 262.219 15C262.476 15 262.722 15.0823 262.904 15.2288C263.085 15.3753 263.188 15.574 263.188 15.7812V16.5625H265.125C266.153 16.5625 267.138 16.8917 267.865 17.4778C268.592 18.0638 269 18.8587 269 19.6875V36.875C269 37.7038 268.592 38.4987 267.865 39.0847C267.138 39.6708 266.153 40 265.125 40H241.875C240.847 40 239.862 39.6708 239.135 39.0847C238.408 38.4987 238 37.7038 238 36.875V19.6875C238 18.8587 238.408 18.0638 239.135 17.4778C239.862 16.8917 240.847 16.5625 241.875 16.5625H243.812V15.7812C243.812 15.574 243.915 15.3753 244.096 15.2288C244.278 15.0823 244.524 15 244.781 15ZM239.938 21.25V36.875C239.938 37.2894 240.142 37.6868 240.505 37.9799C240.868 38.2729 241.361 38.4375 241.875 38.4375H265.125C265.639 38.4375 266.132 38.2729 266.495 37.9799C266.858 37.6868 267.062 37.2894 267.062 36.875V21.25H239.938Z" fill="#6FAA11" stroke="#6FAA11" stroke-width="0.000866071"/>
<path d="M276.296 31.504C276.296 32.2613 276.52 32.848 276.968 33.264C277.427 33.6693 277.997 33.872 278.68 33.872C279.363 33.872 279.923 33.712 280.36 33.392C280.808 33.0613 281.032 32.592 281.032 31.984C281.032 31.8453 281 31.7067 280.936 31.568C280.872 31.4293 280.797 31.36 280.712 31.36C280.627 31.36 280.584 31.4133 280.584 31.52C280.584 31.5307 280.6 31.5733 280.632 31.648C280.664 31.7227 280.68 31.8453 280.68 32.016C280.68 32.1867 280.605 32.352 280.456 32.512C280.307 32.6613 280.099 32.736 279.832 32.736C279.565 32.736 279.336 32.6507 279.144 32.48C278.963 32.2987 278.872 32.0533 278.872 31.744C278.872 31.4347 278.979 31.1733 279.192 30.96C279.416 30.736 279.704 30.624 280.056 30.624C280.408 30.624 280.707 30.7573 280.952 31.024C281.197 31.28 281.32 31.6053 281.32 32C281.32 32.6613 281.059 33.216 280.536 33.664C280.024 34.1013 279.208 34.32 278.088 34.32C276.968 34.32 276.104 34.0907 275.496 33.632C274.888 33.1627 274.584 32.5333 274.584 31.744C274.584 30.944 274.829 30.272 275.32 29.728C275.811 29.184 276.515 28.8107 277.432 28.608L277.384 28.464C276.616 28.3147 276.035 28.0267 275.64 27.6C275.245 27.1627 275.048 26.6507 275.048 26.064C275.048 25.2533 275.357 24.5867 275.976 24.064C276.605 23.5413 277.395 23.28 278.344 23.28C278.984 23.28 279.539 23.4133 280.008 23.68C280.488 23.9467 280.728 24.3787 280.728 24.976C280.728 25.3707 280.611 25.6853 280.376 25.92C280.152 26.144 279.891 26.256 279.592 26.256C279.293 26.256 279.032 26.1653 278.808 25.984C278.584 25.8027 278.472 25.5627 278.472 25.264C278.472 24.9653 278.557 24.7253 278.728 24.544C278.909 24.3627 279.133 24.272 279.4 24.272C279.741 24.272 279.976 24.432 280.104 24.752C280.125 24.8267 280.147 24.88 280.168 24.912C280.189 24.9333 280.227 24.944 280.28 24.944C280.376 24.944 280.424 24.896 280.424 24.8C280.424 24.4693 280.253 24.1973 279.912 23.984C279.571 23.7707 279.149 23.664 278.648 23.664C278.147 23.664 277.688 23.872 277.272 24.288C276.856 24.6933 276.648 25.2533 276.648 25.968C276.648 26.6827 276.829 27.232 277.192 27.616C277.555 28 278.029 28.192 278.616 28.192C278.893 28.192 279.149 28.144 279.384 28.048L279.48 28.336C277.357 28.9547 276.296 30.0107 276.296 31.504ZM284.887 31.488C285.036 32.1173 285.249 32.6293 285.527 33.024C285.804 33.408 286.119 33.6 286.471 33.6C286.833 33.6 287.191 33.3653 287.543 32.896C287.905 32.416 288.199 31.808 288.423 31.072C288.657 30.3253 288.775 29.5947 288.775 28.88C288.775 27.3653 288.353 26.608 287.511 26.608C287.404 26.608 287.351 26.6507 287.351 26.736C287.351 26.8213 287.399 26.8747 287.495 26.896C287.793 26.96 287.937 27.136 287.927 27.424C287.927 27.7013 287.847 27.9093 287.687 28.048C287.537 28.1867 287.335 28.256 287.079 28.256C286.833 28.256 286.625 28.1707 286.455 28C286.295 27.8293 286.215 27.6053 286.215 27.328C286.215 27.0507 286.327 26.816 286.551 26.624C286.775 26.4213 287.047 26.32 287.367 26.32C288.497 26.32 289.063 27.152 289.063 28.816C289.063 29.6907 288.919 30.5547 288.631 31.408C288.353 32.2507 287.969 32.9493 287.479 33.504C286.999 34.048 286.487 34.32 285.943 34.32C285.036 34.32 284.316 33.7227 283.783 32.528C283.26 31.3333 282.999 29.7493 282.999 27.776V26.88H281.863V26.64H282.199C283.041 26.64 283.793 26.5707 284.455 26.432V27.408C284.455 28.912 284.599 30.272 284.887 31.488ZM294.213 26.32C295.013 26.32 295.68 26.4907 296.213 26.832C296.757 27.1733 297.029 27.6853 297.029 28.368C297.029 29.424 296.426 30.0747 295.221 30.32C294.613 30.4373 293.856 30.496 292.949 30.496H292.197V30.96C292.197 31.824 292.373 32.528 292.725 33.072C293.088 33.6053 293.61 33.872 294.293 33.872C294.986 33.872 295.525 33.6693 295.909 33.264C296.304 32.8587 296.581 32.336 296.741 31.696L297.029 31.728C296.858 32.5067 296.512 33.136 295.989 33.616C295.477 34.0853 294.826 34.32 294.037 34.32C292.928 34.32 292.085 33.9573 291.509 33.232C290.933 32.496 290.645 31.5253 290.645 30.32C290.645 29.1147 290.954 28.1493 291.573 27.424C292.192 26.688 293.072 26.32 294.213 26.32ZM292.197 30.208H292.757C293.621 30.208 294.224 30.1227 294.565 29.952C294.917 29.7813 295.157 29.5733 295.285 29.328C295.413 29.072 295.477 28.7147 295.477 28.256C295.477 27.7973 295.36 27.408 295.125 27.088C294.901 26.7573 294.554 26.592 294.085 26.592C293.616 26.592 293.232 26.7627 292.933 27.104C292.645 27.4347 292.448 27.824 292.341 28.272C292.245 28.72 292.197 29.216 292.197 29.76V30.208ZM301.817 33.76V34H298.281V33.76H299.337V26.88H298.201V26.64H298.537C299.379 26.64 300.131 26.5707 300.793 26.432V28.032H300.889C301.07 27.52 301.374 27.1093 301.801 26.8C302.238 26.48 302.723 26.32 303.257 26.32C304.185 26.32 304.819 26.5973 305.161 27.152C305.502 27.696 305.673 28.512 305.673 29.6V33.76H306.729V34H303.193V33.76H304.249V29.824C304.249 28.6187 304.158 27.824 303.977 27.44C303.891 27.2693 303.758 27.1147 303.577 26.976C303.406 26.8373 303.15 26.768 302.809 26.768C302.467 26.768 302.142 26.8907 301.833 27.136C301.534 27.3813 301.31 27.7173 301.161 28.144C300.894 28.9013 300.761 29.808 300.761 30.864V33.76H301.817ZM310.167 26.88V32.32C310.167 33.216 310.226 33.712 310.343 33.808C310.407 33.8613 310.492 33.888 310.599 33.888C310.866 33.888 311.122 33.7333 311.367 33.424C311.623 33.1147 311.831 32.7787 311.991 32.416L312.247 32.512C312.044 33.024 311.772 33.456 311.431 33.808C311.09 34.1493 310.695 34.32 310.247 34.32C309.618 34.32 309.207 34.1333 309.015 33.76C308.834 33.376 308.743 32.7787 308.743 31.968V26.88H307.607V26.64H307.719C308.946 26.64 309.692 25.936 309.959 24.528H310.167V26.64H312.103V26.88H310.167ZM316.312 26.32C317.934 26.32 318.745 26.8693 318.745 27.968C318.745 28.288 318.638 28.56 318.425 28.784C318.222 28.9973 317.977 29.104 317.689 29.104C317.411 29.104 317.182 29.024 317.001 28.864C316.83 28.6933 316.745 28.4907 316.745 28.256C316.745 28.0107 316.814 27.808 316.953 27.648C317.091 27.4773 317.278 27.392 317.513 27.392C317.875 27.392 318.089 27.5307 318.153 27.808C318.163 27.904 318.211 27.952 318.297 27.952C318.393 27.952 318.441 27.904 318.441 27.808C318.441 27.5093 318.291 27.2427 317.993 27.008C317.705 26.7627 317.257 26.64 316.649 26.64C316.051 26.64 315.555 26.752 315.161 26.976C314.777 27.2 314.585 27.5147 314.585 27.92C314.585 28.3147 314.739 28.6347 315.049 28.88C315.358 29.1253 315.731 29.328 316.169 29.488C316.606 29.648 317.043 29.8187 317.481 30C317.929 30.1707 318.307 30.4213 318.617 30.752C318.926 31.0827 319.081 31.4827 319.081 31.952C319.081 32.752 318.793 33.3493 318.217 33.744C317.651 34.128 316.947 34.32 316.105 34.32C315.262 34.32 314.585 34.1707 314.073 33.872C313.561 33.5733 313.305 33.12 313.305 32.512C313.305 32.192 313.406 31.9253 313.609 31.712C313.822 31.488 314.067 31.376 314.345 31.376C314.633 31.376 314.862 31.4613 315.033 31.632C315.214 31.792 315.305 31.9947 315.305 32.24C315.305 32.4747 315.235 32.6773 315.097 32.848C314.958 33.008 314.771 33.088 314.537 33.088C314.174 33.088 313.961 32.9493 313.897 32.672C313.886 32.576 313.833 32.528 313.737 32.528C313.651 32.528 313.609 32.576 313.609 32.672C313.609 32.992 313.785 33.296 314.137 33.584C314.499 33.8613 315.033 34 315.737 34C317.283 34 318.057 33.4987 318.057 32.496C318.057 31.8773 317.529 31.376 316.473 30.992C316.025 30.832 315.582 30.6667 315.145 30.496C314.707 30.3147 314.334 30.0587 314.025 29.728C313.715 29.3973 313.561 28.9973 313.561 28.528C313.561 27.8453 313.827 27.3067 314.361 26.912C314.905 26.5173 315.555 26.32 316.312 26.32Z" fill="#6FAA11"/>
<defs>
<filter id="filter0_dd_372_590" x="0" y="0" width="414" height="74" filterUnits="userSpaceOnUse" color-interpolation-filters="sRGB">
<feFlood flood-opacity="0" result="BackgroundImageFix"/>
<feColorMatrix in="SourceAlpha" type="matrix" values="0 0 0 0 0 0 0 0 0 0 0 0 0 0 0 0 0 0 127 0" result="hardAlpha"/>
<feMorphology radius="4" operator="erode" in="SourceAlpha" result="effect1_dropShadow_372_590"/>
<feOffset dy="4"/>
<feGaussianBlur stdDeviation="3"/>
<feComposite in2="hardAlpha" operator="out"/>
<feColorMatrix type="matrix" values="0 0 0 0 0 0 0 0 0 0 0 0 0 0 0 0 0 0 0.1 0"/>
<feBlend mode="normal" in2="BackgroundImageFix" result="effect1_dropShadow_372_590"/>
<feColorMatrix in="SourceAlpha" type="matrix" values="0 0 0 0 0 0 0 0 0 0 0 0 0 0 0 0 0 0 127 0" result="hardAlpha"/>
<feMorphology radius="3" operator="erode" in="SourceAlpha" result="effect2_dropShadow_372_590"/>
<feOffset dy="10"/>
<feGaussianBlur stdDeviation="7.5"/>
<feComposite in2="hardAlpha" operator="out"/>
<feColorMatrix type="matrix" values="0 0 0 0 0 0 0 0 0 0 0 0 0 0 0 0 0 0 0.1 0"/>
<feBlend mode="normal" in2="effect1_dropShadow_372_590" result="effect2_dropShadow_372_590"/>
<feBlend mode="normal" in="SourceGraphic" in2="effect2_dropShadow_372_590" result="shape"/>
</filter>
</defs>
</svg>
