<svg width="414" height="74" viewBox="0 0 414 74" fill="none" xmlns="http://www.w3.org/2000/svg">
<mask id="path-1-inside-1_372_654" fill="white">
<path d="M12 27C12 13.1929 23.1929 2 37 2H377C390.807 2 402 13.1929 402 27V27C402 40.8071 390.807 52 377 52H37C23.1929 52 12 40.8071 12 27V27Z"/>
</mask>
<path d="M12 27C12 13.1929 23.1929 2 37 2H377C390.807 2 402 13.1929 402 27V27C402 40.8071 390.807 52 377 52H37C23.1929 52 12 40.8071 12 27V27Z" fill="white"/>
<path d="M12 27C12 12.6406 23.6406 1 38 1H376C390.359 1 402 12.6406 402 27C402 13.7452 390.807 3 377 3H37C23.1929 3 12 13.7452 12 27ZM12 27M402 52H12H402M402 52M12 52V2V52M12 52M402 2V52V2" fill="#C3C6D0" mask="url(#path-1-inside-1_372_654)"/>
<g filter="url(#filter0_dd_372_654)">
<rect x="12" y="2" width="390" height="50" fill="white" fill-opacity="0.01" shape-rendering="crispEdges"/>
</g>
<path d="M44.7071 31.2812C44.1834 31.2812 43.7588 31.926 43.7588 32.7213C43.7588 33.5165 44.1834 34.1613 44.7071 34.1613H52.2933C52.817 34.1613 53.2415 33.5165 53.2415 32.7213C53.2415 31.926 52.817 31.2812 52.2933 31.2812H44.7071Z" fill="#134074"/>
<path fill-rule="evenodd" clip-rule="evenodd" d="M48.5 14C47.6766 14 46.9285 14.2264 46.1169 14.6053C45.3324 14.9716 44.4261 15.5115 43.294 16.186L40.891 17.6177C39.8199 18.2559 38.9621 18.767 38.301 19.253C37.6165 19.7563 37.0906 20.2689 36.7108 20.935C36.3318 21.5998 36.1611 22.3071 36.0793 23.1431C36 23.9533 36 24.9441 36 26.1866V27.9869C36 30.112 36 31.7897 36.1776 33.1013C36.3597 34.4469 36.7425 35.5331 37.6074 36.3919C38.4763 37.2548 39.5819 37.6402 40.9507 37.823C42.2773 38 43.9716 38 46.1068 38H50.8931C53.0284 38 54.7227 38 56.0493 37.823C57.418 37.6402 58.5237 37.2548 59.3926 36.3919C60.2574 35.5331 60.6402 34.4469 60.8224 33.1013C61 31.7897 61 30.1121 61 27.9869V26.1866C61 24.9441 61 23.9533 60.9207 23.1431C60.8388 22.3071 60.6681 21.5998 60.2892 20.935C59.9094 20.2689 59.3836 19.7563 58.699 19.253C58.0379 18.767 57.1801 18.2559 56.109 17.6178L53.7059 16.186C52.574 15.5115 51.6676 14.9715 50.883 14.6053C50.0715 14.2264 49.3234 14 48.5 14ZM44.1739 17.6325C45.355 16.9288 46.1855 16.4352 46.8797 16.1111C47.556 15.7953 48.0351 15.6744 48.5 15.6744C48.9649 15.6744 49.444 15.7953 50.1203 16.1111C50.8145 16.4352 51.645 16.9288 52.8262 17.6325L55.1517 19.0181C56.269 19.6837 57.0534 20.1522 57.6385 20.5824C58.2078 21.0009 58.5352 21.3463 58.7592 21.739C58.984 22.1331 59.1151 22.5938 59.1842 23.2998C59.2549 24.0226 59.2558 24.9348 59.2558 26.2276V27.9256C59.2558 30.1257 59.2541 31.6944 59.0928 32.8855C58.9344 34.0554 58.636 34.7342 58.1386 35.2282C57.6452 35.7181 56.9734 36.009 55.8091 36.1645C54.6165 36.3237 53.0436 36.3256 50.8256 36.3256H46.1744C43.9564 36.3256 42.3835 36.3237 41.191 36.1645C40.0266 36.009 39.3548 35.7181 38.8614 35.2282C38.364 34.7342 38.0656 34.0554 37.9072 32.8855C37.7459 31.6944 37.7442 30.1257 37.7442 27.9256V26.2276C37.7442 24.9348 37.7451 24.0226 37.8158 23.2998C37.8849 22.5938 38.0161 22.1331 38.2408 21.739C38.4647 21.3463 38.7922 21.0009 39.3615 20.5824C39.9466 20.1522 40.731 19.6837 41.8483 19.0181L44.1739 17.6325Z" fill="#134074"/>
<path d="M110 25.4651C110 25.889 110.39 26.2326 110.872 26.2326C111.354 26.2326 111.744 25.889 111.744 25.4651H110ZM112.12 30.7108C111.936 30.3192 111.426 30.1332 110.981 30.2954C110.536 30.4576 110.325 30.9065 110.509 31.2981L112.12 30.7108ZM124.514 36.997L125.144 36.0599L123.643 35.278L123.013 36.2152L124.514 36.997ZM119.856 36.0599L120.486 36.997L121.987 36.2152L121.357 35.278L119.856 36.0599ZM123.013 36.2152C122.789 36.5484 122.211 36.5484 121.987 36.2152L120.486 36.997C121.385 38.3343 123.615 38.3343 124.514 36.997L123.013 36.2152ZM120.756 17.5349H124.244V16H120.756V17.5349ZM133.256 25.4651V26.4884H135V25.4651H133.256ZM117.619 33.3868C116.159 33.3646 115.394 33.2829 114.795 33.0644L114.127 34.4824C115.063 34.8236 116.13 34.8993 117.589 34.9214L117.619 33.3868ZM110.509 31.2981C111.188 32.7398 112.489 33.8852 114.127 34.4824L114.795 33.0644C113.584 32.6229 112.622 31.7764 112.12 30.7108L110.509 31.2981ZM133.256 26.4884C133.256 27.6908 133.255 28.5543 133.203 29.2355C133.15 29.91 133.05 30.3498 132.88 30.7108L134.491 31.2981C134.764 30.719 134.884 30.0926 134.943 29.34C135 28.5944 135 27.6699 135 26.4884H133.256ZM127.411 34.9214C128.87 34.8993 129.937 34.8236 130.873 34.4824L130.205 33.0644C129.606 33.2829 128.841 33.3646 127.381 33.3868L127.411 34.9214ZM132.88 30.7108C132.378 31.7764 131.416 32.6229 130.205 33.0644L130.873 34.4824C132.511 33.8852 133.812 32.7398 134.491 31.2981L132.88 30.7108ZM124.244 17.5349C126.164 17.5349 127.543 17.5357 128.618 17.6257C129.681 17.7146 130.357 17.8851 130.896 18.1757L131.807 16.867C130.948 16.4037 129.974 16.1973 128.784 16.0977C127.606 15.9992 126.13 16 124.244 16V17.5349ZM135 25.4651C135 23.8052 135.001 22.5064 134.889 21.4705C134.776 20.4231 134.541 19.5655 134.015 18.8095L132.528 19.6115C132.858 20.0858 133.052 20.6807 133.153 21.6157C133.255 22.5622 133.256 23.7755 133.256 25.4651H135ZM130.896 18.1757C131.561 18.5343 132.12 19.0263 132.528 19.6115L134.015 18.8095C133.463 18.0178 132.707 17.3522 131.807 16.867L130.896 18.1757ZM120.756 16C118.87 16 117.394 15.9992 116.216 16.0977C115.026 16.1973 114.052 16.4037 113.193 16.867L114.104 18.1757C114.643 17.8851 115.319 17.7146 116.381 17.6257C117.457 17.5357 118.836 17.5349 120.756 17.5349V16ZM111.744 25.4651C111.744 23.7755 111.745 22.5622 111.847 21.6157C111.948 20.6807 112.142 20.0858 112.472 19.6115L110.985 18.8095C110.459 19.5655 110.224 20.4231 110.111 21.4705C109.999 22.5064 110 23.8052 110 25.4651H111.744ZM113.193 16.867C112.293 17.3522 111.537 18.0178 110.985 18.8095L112.472 19.6115C112.88 19.0263 113.439 18.5343 114.104 18.1757L113.193 16.867ZM121.357 35.278C121.12 34.927 120.913 34.6173 120.712 34.3739C120.499 34.1177 120.256 33.887 119.918 33.7141L119.042 35.041C119.097 35.0691 119.172 35.1206 119.302 35.278C119.443 35.4485 119.603 35.6839 119.856 36.0599L121.357 35.278ZM117.589 34.9214C118.1 34.9292 118.423 34.9349 118.67 34.9588C118.9 34.9813 118.989 35.0142 119.042 35.041L119.918 33.7141C119.578 33.5399 119.224 33.4686 118.862 33.4333C118.516 33.3996 118.097 33.3941 117.619 33.3868L117.589 34.9214ZM125.144 36.0599C125.397 35.6839 125.557 35.4485 125.698 35.278C125.828 35.1206 125.903 35.0691 125.958 35.041L125.082 33.7141C124.744 33.887 124.5 34.1177 124.288 34.3739C124.087 34.6173 123.88 34.927 123.643 35.278L125.144 36.0599ZM127.381 33.3868C126.903 33.3941 126.484 33.3996 126.138 33.4333C125.776 33.4686 125.422 33.5399 125.082 33.7141L125.958 35.041C126.011 35.0142 126.1 34.9813 126.33 34.9588C126.577 34.9349 126.9 34.9292 127.411 34.9214L127.381 33.3868Z" fill="#134074"/>
<path d="M193.05 24.3086C190.135 24.3086 187.75 26.1687 187.75 28.4421C187.75 30.7155 190.135 32.5756 193.05 32.5756C195.964 32.5756 198.349 30.7155 198.349 28.4421C198.349 26.1687 195.964 24.3086 193.05 24.3086ZM193.05 31.1978C191.106 31.1978 189.517 29.9577 189.517 28.4421C189.517 26.9265 191.106 25.6864 193.05 25.6864C194.993 25.6864 196.583 26.9265 196.583 28.4421C196.583 29.9577 194.993 31.1978 193.05 31.1978Z" fill="#134074"/>
<path d="M193 34.2031C189.71 34.2031 186.552 35.271 184.3 37.1483L183.704 37.6477L184.984 38.595L185.581 38.0955C187.524 36.4766 190.152 35.581 193 35.581C195.849 35.581 198.476 36.4766 200.42 38.0955L201.016 38.595L202.297 37.6477L201.7 37.1483C199.448 35.2882 196.29 34.2031 193 34.2031Z" fill="#134074"/>
<path d="M200.287 25.0938V26.4716C202.363 26.4716 204.284 27.1261 205.719 28.3144L207 27.3672C205.278 25.9205 202.827 25.0938 200.287 25.0938Z" fill="#134074"/>
<path d="M204.505 20.2896C204.505 18.4812 202.606 17 200.287 17C197.968 17 196.069 18.4812 196.069 20.2896C196.069 22.098 197.968 23.5792 200.287 23.5792C202.606 23.5792 204.505 22.098 204.505 20.2896ZM197.836 20.2896C197.836 19.239 198.94 18.3778 200.287 18.3778C201.634 18.3778 202.738 19.239 202.738 20.2896C202.738 21.3402 201.634 22.2013 200.287 22.2013C198.94 22.2013 197.836 21.3402 197.836 20.2896Z" fill="#134074"/>
<path d="M185.713 25.0938C183.173 25.0938 180.722 25.9205 179 27.3672L180.281 28.3144C181.694 27.1261 183.637 26.4716 185.713 26.4716V25.0938Z" fill="#134074"/>
<path d="M189.93 20.2896C189.93 18.4812 188.031 17 185.713 17C183.394 17 181.495 18.4812 181.495 20.2896C181.495 22.098 183.394 23.5792 185.713 23.5792C188.031 23.5792 189.93 22.098 189.93 20.2896ZM185.713 22.2013C184.366 22.2013 183.262 21.3402 183.262 20.2896C183.262 19.239 184.366 18.3778 185.713 18.3778C187.06 18.3778 188.164 19.239 188.164 20.2896C188.164 21.3402 187.06 22.2013 185.713 22.2013Z" fill="#134074"/>
<path opacity="0.4" d="M317.144 29.9046C317.06 29.8925 316.952 29.8925 316.856 29.9046C314.741 29.8325 313.06 28.1033 313.06 25.9778C313.06 23.8043 314.813 22.0391 317 22.0391C319.174 22.0391 320.94 23.8043 320.94 25.9778C320.928 28.1033 319.258 29.8325 317.144 29.9046Z" stroke="#6FAA11" stroke-width="2" stroke-linecap="round" stroke-linejoin="round"/>
<path opacity="0.34" d="M325.06 37.8593C322.931 39.8122 320.109 40.9983 317 40.9983C313.891 40.9983 311.069 39.8122 308.94 37.8593C309.06 36.7331 309.777 35.6308 311.057 34.7682C314.333 32.5877 319.691 32.5877 322.943 34.7682C324.223 35.6308 324.94 36.7331 325.06 37.8593Z" stroke="#6FAA11" stroke-width="2" stroke-linecap="round" stroke-linejoin="round"/>
<path d="M317 40.9998C323.627 40.9998 329 35.6272 329 28.9999C329 22.3725 323.627 17 317 17C310.373 17 305 22.3725 305 28.9999C305 35.6272 310.373 40.9998 317 40.9998Z" stroke="#6FAA11" stroke-width="2" stroke-linecap="round" stroke-linejoin="round"/>
<path d="M260.125 22.7812C260.125 22.574 260.227 22.3753 260.409 22.2288C260.59 22.0823 260.837 22 261.094 22H263.031C263.288 22 263.535 22.0823 263.716 22.2288C263.898 22.3753 264 22.574 264 22.7812V24.3438C264 24.551 263.898 24.7497 263.716 24.8962C263.535 25.0427 263.288 25.125 263.031 25.125H261.094C260.837 25.125 260.59 25.0427 260.409 24.8962C260.227 24.7497 260.125 24.551 260.125 24.3438V22.7812Z" fill="#134074" stroke="#134074" stroke-width="0.000866071"/>
<path d="M260.125 26.7812C260.125 26.574 260.227 26.3753 260.409 26.2288C260.59 26.0823 260.837 26 261.094 26H263.031C263.288 26 263.535 26.0823 263.716 26.2288C263.898 26.3753 264 26.574 264 26.7812V28.3438C264 28.551 263.898 28.7497 263.716 28.8962C263.535 29.0427 263.288 29.125 263.031 29.125H261.094C260.837 29.125 260.59 29.0427 260.409 28.8962C260.227 28.7497 260.125 28.551 260.125 28.3438V26.7812Z" fill="#134074" stroke="#134074" stroke-width="0.000866071"/>
<path d="M254.125 30.7812C254.125 30.574 254.227 30.3753 254.409 30.2288C254.59 30.0823 254.837 30 255.094 30H257.031C257.288 30 257.535 30.0823 257.716 30.2288C257.898 30.3753 258 30.574 258 30.7812V32.3438C258 32.551 257.898 32.7497 257.716 32.8962C257.535 33.0427 257.288 33.125 257.031 33.125H255.094C254.837 33.125 254.59 33.0427 254.409 32.8962C254.227 32.7497 254.125 32.551 254.125 32.3438V30.7812Z" fill="#134074" stroke="#134074" stroke-width="0.000866071"/>
<path d="M254 22.7812C254 22.574 254.102 22.3753 254.284 22.2288C254.465 22.0823 254.712 22 254.969 22H256.906C257.163 22 257.41 22.0823 257.591 22.2288C257.773 22.3753 257.875 22.574 257.875 22.7812V24.3438C257.875 24.551 257.773 24.7497 257.591 24.8962C257.41 25.0427 257.163 25.125 256.906 25.125H254.969C254.712 25.125 254.465 25.0427 254.284 24.8962C254.102 24.7497 254 24.551 254 24.3438V22.7812Z" fill="#134074" stroke="#134074" stroke-width="0.000866071"/>
<path d="M254 26.7812C254 26.574 254.102 26.3753 254.284 26.2288C254.465 26.0823 254.712 26 254.969 26H256.906C257.163 26 257.41 26.0823 257.591 26.2288C257.773 26.3753 257.875 26.574 257.875 26.7812V28.3438C257.875 28.551 257.773 28.7497 257.591 28.8962C257.41 29.0427 257.163 29.125 256.906 29.125H254.969C254.712 29.125 254.465 29.0427 254.284 28.8962C254.102 28.7497 254 28.551 254 28.3438V26.7812Z" fill="#134074" stroke="#134074" stroke-width="0.000866071"/>
<path d="M248 30.7812C248 30.574 248.102 30.3753 248.284 30.2288C248.465 30.0823 248.712 30 248.969 30H250.906C251.163 30 251.41 30.0823 251.591 30.2288C251.773 30.3753 251.875 30.574 251.875 30.7812V32.3438C251.875 32.551 251.773 32.7497 251.591 32.8962C251.41 33.0427 251.163 33.125 250.906 33.125H248.969C248.712 33.125 248.465 33.0427 248.284 32.8962C248.102 32.7497 248 32.551 248 32.3438V30.7812Z" fill="#134074" stroke="#134074" stroke-width="0.000866071"/>
<path d="M248 22.7812C248 22.574 248.102 22.3753 248.284 22.2288C248.465 22.0823 248.712 22 248.969 22H250.906C251.163 22 251.41 22.0823 251.591 22.2288C251.773 22.3753 251.875 22.574 251.875 22.7812V24.3438C251.875 24.551 251.773 24.7497 251.591 24.8962C251.41 25.0427 251.163 25.125 250.906 25.125H248.969C248.712 25.125 248.465 25.0427 248.284 24.8962C248.102 24.7497 248 24.551 248 24.3438V22.7812Z" fill="#134074" stroke="#134074" stroke-width="0.000866071"/>
<path d="M248 26.7812C248 26.574 248.102 26.3753 248.284 26.2288C248.465 26.0823 248.712 26 248.969 26H250.906C251.163 26 251.41 26.0823 251.591 26.2288C251.773 26.3753 251.875 26.574 251.875 26.7812V28.3438C251.875 28.551 251.773 28.7497 251.591 28.8962C251.41 29.0427 251.163 29.125 250.906 29.125H248.969C248.712 29.125 248.465 29.0427 248.284 28.8962C248.102 28.7497 248 28.551 248 28.3438V26.7812Z" fill="#134074" stroke="#134074" stroke-width="0.000866071"/>
<path d="M242 30.7812C242 30.574 242.102 30.3753 242.284 30.2288C242.465 30.0823 242.712 30 242.969 30H244.906C245.163 30 245.41 30.0823 245.591 30.2288C245.773 30.3753 245.875 30.574 245.875 30.7812V32.3438C245.875 32.551 245.773 32.7497 245.591 32.8962C245.41 33.0427 245.163 33.125 244.906 33.125H242.969C242.712 33.125 242.465 33.0427 242.284 32.8962C242.102 32.7497 242 32.551 242 32.3438V30.7812Z" fill="#134074" stroke="#134074" stroke-width="0.000866071"/>
<path d="M242 30.7812C242 30.574 242.102 30.3753 242.284 30.2288C242.465 30.0823 242.712 30 242.969 30H244.906C245.163 30 245.41 30.0823 245.591 30.2288C245.773 30.3753 245.875 30.574 245.875 30.7812V32.3438C245.875 32.551 245.773 32.7497 245.591 32.8962C245.41 33.0427 245.163 33.125 244.906 33.125H242.969C242.712 33.125 242.465 33.0427 242.284 32.8962C242.102 32.7497 242 32.551 242 32.3438V30.7812Z" fill="#134074" stroke="#134074" stroke-width="0.000866071"/>
<path d="M242 26.7812C242 26.574 242.102 26.3753 242.284 26.2288C242.465 26.0823 242.712 26 242.969 26H244.906C245.163 26 245.41 26.0823 245.591 26.2288C245.773 26.3753 245.875 26.574 245.875 26.7812V28.3438C245.875 28.551 245.773 28.7497 245.591 28.8962C245.41 29.0427 245.163 29.125 244.906 29.125H242.969C242.712 29.125 242.465 29.0427 242.284 28.8962C242.102 28.7497 242 28.551 242 28.3438V26.7812Z" fill="#134074" stroke="#134074" stroke-width="0.000866071"/>
<path d="M244.781 13C245.038 13 245.285 13.0823 245.466 13.2288C245.648 13.3753 245.75 13.574 245.75 13.7812V14.5625H261.25V13.7812C261.25 13.574 261.352 13.3753 261.534 13.2288C261.715 13.0823 261.962 13 262.219 13C262.476 13 262.722 13.0823 262.904 13.2288C263.085 13.3753 263.188 13.574 263.188 13.7812V14.5625H265.125C266.153 14.5625 267.138 14.8917 267.865 15.4778C268.592 16.0638 269 16.8587 269 17.6875V34.875C269 35.7038 268.592 36.4987 267.865 37.0847C267.138 37.6708 266.153 38 265.125 38H241.875C240.847 38 239.862 37.6708 239.135 37.0847C238.408 36.4987 238 35.7038 238 34.875V17.6875C238 16.8587 238.408 16.0638 239.135 15.4778C239.862 14.8917 240.847 14.5625 241.875 14.5625H243.812V13.7812C243.812 13.574 243.915 13.3753 244.096 13.2288C244.278 13.0823 244.524 13 244.781 13ZM239.938 19.25V34.875C239.938 35.2894 240.142 35.6868 240.505 35.9799C240.868 36.2729 241.361 36.4375 241.875 36.4375H265.125C265.639 36.4375 266.132 36.2729 266.495 35.9799C266.858 35.6868 267.062 35.2894 267.062 34.875V19.25H239.938Z" fill="#134074" stroke="#134074" stroke-width="0.000866071"/>
<path d="M340 27.944C340.299 28.1573 340.603 28.264 340.912 28.264C341.221 28.264 341.472 28.2213 341.664 28.136V30.216H342.592C343.499 30.216 344.139 29.9867 344.512 29.528C344.896 29.0693 345.088 28.36 345.088 27.4C345.088 25.5333 344.32 24.6 342.784 24.6C341.813 24.6 341.072 24.8027 340.56 25.208C340.4 25.3253 340.272 25.4693 340.176 25.64C340.091 25.8107 340.048 25.9493 340.048 26.056C340.048 26.152 340.091 26.2 340.176 26.2C340.261 26.2 340.32 26.1573 340.352 26.072C340.48 25.7413 340.731 25.576 341.104 25.576C341.339 25.576 341.536 25.6613 341.696 25.832C341.867 26.0027 341.952 26.2373 341.952 26.536C341.952 26.8347 341.845 27.0747 341.632 27.256C341.419 27.4373 341.163 27.528 340.864 27.528C340.565 27.528 340.299 27.4107 340.064 27.176C339.84 26.9413 339.728 26.6427 339.728 26.28C339.728 25.704 340.016 25.2293 340.592 24.856C341.179 24.472 341.931 24.28 342.848 24.28C344.085 24.28 345.067 24.5307 345.792 25.032C346.517 25.5333 346.88 26.3227 346.88 27.4C346.88 28.4773 346.565 29.2613 345.936 29.752C345.307 30.232 344.363 30.472 343.104 30.472H341.664V34.744H342.992V35H338.832V34.744H340V27.944ZM353.555 28.536C353.555 28.2587 353.453 28.0293 353.251 27.848C353.048 27.6667 352.776 27.576 352.435 27.576C352.093 27.576 351.773 27.7147 351.475 27.992C351.187 28.2587 350.963 28.6107 350.803 29.048C350.515 29.8907 350.371 30.8027 350.371 31.784V34.76H351.539V35H347.891V34.76H348.947V27.88H347.811V27.64H348.147C349 27.64 349.752 27.5707 350.403 27.432V29.096H350.499C350.947 27.912 351.619 27.32 352.515 27.32C352.909 27.32 353.229 27.448 353.475 27.704C353.731 27.9493 353.859 28.2587 353.859 28.632C353.859 28.9947 353.752 29.288 353.539 29.512C353.336 29.7253 353.091 29.832 352.803 29.832C352.525 29.832 352.296 29.752 352.115 29.592C351.944 29.4213 351.859 29.2187 351.859 28.984C351.859 28.7387 351.928 28.536 352.067 28.376C352.205 28.2053 352.392 28.12 352.627 28.12C352.989 28.12 353.203 28.2587 353.267 28.536C353.288 28.632 353.341 28.68 353.427 28.68C353.512 28.68 353.555 28.632 353.555 28.536ZM360.71 34.2C360.091 34.9467 359.227 35.32 358.118 35.32C357.009 35.32 356.145 34.9467 355.526 34.2C354.907 33.4533 354.598 32.4933 354.598 31.32C354.598 30.1467 354.907 29.1867 355.526 28.44C356.145 27.6933 357.009 27.32 358.118 27.32C359.227 27.32 360.091 27.6933 360.71 28.44C361.329 29.1867 361.638 30.1467 361.638 31.32C361.638 32.4933 361.329 33.4533 360.71 34.2ZM360.054 32.392C360.075 32.0827 360.086 31.7253 360.086 31.32C360.086 30.9147 360.075 30.5573 360.054 30.248C360.033 29.9387 359.979 29.608 359.894 29.256C359.819 28.904 359.713 28.616 359.574 28.392C359.446 28.1573 359.254 27.9653 358.998 27.816C358.753 27.6667 358.459 27.592 358.118 27.592C357.777 27.592 357.478 27.6667 357.222 27.816C356.977 27.9653 356.785 28.1573 356.646 28.392C356.518 28.616 356.411 28.904 356.326 29.256C356.251 29.608 356.203 29.9387 356.182 30.248C356.161 30.5573 356.15 30.9147 356.15 31.32C356.15 31.7253 356.161 32.0827 356.182 32.392C356.203 32.7013 356.251 33.032 356.326 33.384C356.411 33.736 356.518 34.0293 356.646 34.264C356.785 34.488 356.977 34.6747 357.222 34.824C357.478 34.9733 357.777 35.048 358.118 35.048C358.459 35.048 358.753 34.9733 358.998 34.824C359.254 34.6747 359.446 34.488 359.574 34.264C359.713 34.0293 359.819 33.736 359.894 33.384C359.979 33.032 360.033 32.7013 360.054 32.392ZM370.34 34.76H371.396V35H367.86V34.76H368.916V28.36C369.503 28.2853 369.978 28.1413 370.34 27.928V34.76ZM365.652 27.88V34.76H366.708V35H363.172V34.76H364.228V27.88H363.092V27.64H364.228V26.552C364.228 24.6107 364.847 23.64 366.084 23.64C366.458 23.64 366.767 23.7627 367.012 24.008C367.268 24.2533 367.396 24.552 367.396 24.904C367.396 25.2453 367.29 25.5387 367.076 25.784C366.863 26.0293 366.612 26.152 366.324 26.152C366.036 26.152 365.802 26.072 365.62 25.912C365.45 25.7413 365.364 25.5333 365.364 25.288C365.364 25.0427 365.434 24.84 365.572 24.68C365.711 24.52 365.887 24.44 366.1 24.44C366.324 24.44 366.495 24.4933 366.612 24.6C366.73 24.7067 366.788 24.84 366.788 25L366.772 25.176C366.772 25.2613 366.815 25.304 366.9 25.304C367.039 25.304 367.108 25.1707 367.108 24.904C367.108 24.6267 367.007 24.3973 366.804 24.216C366.612 24.024 366.34 23.928 365.988 23.928C365.647 23.928 365.364 24.0667 365.14 24.344C364.916 24.6213 364.804 24.9733 364.804 25.4C364.804 25.816 364.932 26.2213 365.188 26.616C365.455 27.0107 365.604 27.352 365.636 27.64H367.396C368.655 27.64 369.551 27.4533 370.084 27.08C370.628 26.696 370.9 26.1307 370.9 25.384C370.9 24.968 370.783 24.6213 370.548 24.344C370.324 24.0667 370.031 23.928 369.668 23.928C369.327 23.928 369.055 24.024 368.852 24.216C368.66 24.3973 368.564 24.6267 368.564 24.904C368.564 25.1707 368.634 25.304 368.772 25.304C368.858 25.304 368.9 25.2613 368.9 25.176L368.884 25C368.884 24.84 368.943 24.7067 369.06 24.6C369.178 24.4933 369.343 24.44 369.556 24.44C369.78 24.44 369.962 24.52 370.1 24.68C370.239 24.84 370.308 25.0427 370.308 25.288C370.308 25.5333 370.218 25.7413 370.036 25.912C369.866 26.072 369.636 26.152 369.348 26.152C369.06 26.152 368.81 26.0293 368.596 25.784C368.383 25.5387 368.276 25.2453 368.276 24.904C368.276 24.552 368.404 24.2533 368.66 24.008C368.916 23.7627 369.247 23.64 369.652 23.64C370.154 23.64 370.532 23.8107 370.788 24.152C371.055 24.4827 371.188 24.8987 371.188 25.4C371.188 26.1893 370.9 26.8027 370.324 27.24C369.759 27.6667 368.836 27.88 367.556 27.88H365.652ZM375.042 34.76H376.098V35H372.562V34.76H373.618V24.2H372.482V23.96H372.818C373.65 23.96 374.391 23.8907 375.042 23.752V34.76ZM380.994 27.32C381.794 27.32 382.461 27.4907 382.994 27.832C383.538 28.1733 383.81 28.6853 383.81 29.368C383.81 30.424 383.207 31.0747 382.002 31.32C381.394 31.4373 380.637 31.496 379.73 31.496H378.978V31.96C378.978 32.824 379.154 33.528 379.506 34.072C379.869 34.6053 380.391 34.872 381.074 34.872C381.767 34.872 382.306 34.6693 382.69 34.264C383.085 33.8587 383.362 33.336 383.522 32.696L383.81 32.728C383.639 33.5067 383.293 34.136 382.77 34.616C382.258 35.0853 381.607 35.32 380.818 35.32C379.709 35.32 378.866 34.9573 378.29 34.232C377.714 33.496 377.426 32.5253 377.426 31.32C377.426 30.1147 377.735 29.1493 378.354 28.424C378.973 27.688 379.853 27.32 380.994 27.32ZM378.978 31.208H379.538C380.402 31.208 381.005 31.1227 381.346 30.952C381.698 30.7813 381.938 30.5733 382.066 30.328C382.194 30.072 382.258 29.7147 382.258 29.256C382.258 28.7973 382.141 28.408 381.906 28.088C381.682 27.7573 381.335 27.592 380.866 27.592C380.397 27.592 380.013 27.7627 379.714 28.104C379.426 28.4347 379.229 28.824 379.122 29.272C379.026 29.72 378.978 30.216 378.978 30.76V31.208Z" fill="#6FAA11"/>
<defs>
<filter id="filter0_dd_372_654" x="0" y="0" width="414" height="74" filterUnits="userSpaceOnUse" color-interpolation-filters="sRGB">
<feFlood flood-opacity="0" result="BackgroundImageFix"/>
<feColorMatrix in="SourceAlpha" type="matrix" values="0 0 0 0 0 0 0 0 0 0 0 0 0 0 0 0 0 0 127 0" result="hardAlpha"/>
<feMorphology radius="4" operator="erode" in="SourceAlpha" result="effect1_dropShadow_372_654"/>
<feOffset dy="4"/>
<feGaussianBlur stdDeviation="3"/>
<feComposite in2="hardAlpha" operator="out"/>
<feColorMatrix type="matrix" values="0 0 0 0 0 0 0 0 0 0 0 0 0 0 0 0 0 0 0.1 0"/>
<feBlend mode="normal" in2="BackgroundImageFix" result="effect1_dropShadow_372_654"/>
<feColorMatrix in="SourceAlpha" type="matrix" values="0 0 0 0 0 0 0 0 0 0 0 0 0 0 0 0 0 0 127 0" result="hardAlpha"/>
<feMorphology radius="3" operator="erode" in="SourceAlpha" result="effect2_dropShadow_372_654"/>
<feOffset dy="10"/>
<feGaussianBlur stdDeviation="7.5"/>
<feComposite in2="hardAlpha" operator="out"/>
<feColorMatrix type="matrix" values="0 0 0 0 0 0 0 0 0 0 0 0 0 0 0 0 0 0 0.1 0"/>
<feBlend mode="normal" in2="effect1_dropShadow_372_654" result="effect2_dropShadow_372_654"/>
<feBlend mode="normal" in="SourceGraphic" in2="effect2_dropShadow_372_654" result="shape"/>
</filter>
</defs>
</svg>
